<svg width="80" height="91" viewBox="0 0 80 91" fill="none" xmlns="http://www.w3.org/2000/svg">
<g clip-path="url(#clip0_483_230)">
<path d="M43.0894 0.032241C43.925 0.209566 44.7603 0.451374 45.5959 0.548096C48.8234 0.918866 51.9037 1.83773 54.9018 3.01453C58.5881 4.44924 61.9468 6.44818 64.9942 8.91461C69.549 12.6062 73.2025 17.0716 75.7255 22.343C77.3476 25.7121 78.6091 29.2424 79.0022 32.9825C79.2971 35.739 79.592 38.5118 79.6086 41.2685C79.6739 55.8412 79.6414 70.3982 79.6414 84.9708C79.6414 86.728 79.3299 87.0343 77.5606 87.0343C73.4154 87.0343 69.2541 87.0343 65.109 87.0343H64.0441C64.0441 87.8244 64.0441 88.5496 64.0441 89.2911C64.0441 90.5486 63.5688 91 62.2745 91C54.8036 91 47.349 91 39.8781 91C32.4072 91 24.8378 91 17.3014 91C15.8924 91 15.4664 90.5649 15.45 89.1783C15.45 88.5014 15.45 87.8244 15.45 87.0343C15.1223 87.0343 14.811 87.0343 14.4834 87.0343C10.24 87.0343 5.99663 87.0343 1.75326 87.0343C0.26234 87.0343 0.0165852 86.7925 0.0165852 85.3417C0.0165852 69.9145 0.0657363 54.4872 0.000201502 39.06C-0.0161822 34.0304 0.966838 29.2264 2.83457 24.5837C4.16166 21.279 5.88193 18.1678 8.19203 15.4273C9.5355 13.8314 10.879 12.2032 12.4026 10.7685C16.0726 7.30256 20.2504 4.56208 25.0508 2.85332C27.279 2.06342 29.5564 1.338 31.8502 0.757661C33.2262 0.403011 34.701 0.37077 36.1263 0.177325C36.2737 0.161205 36.4212 0.0644818 36.5686 0C38.7639 0.032241 40.9266 0.032241 43.0894 0.032241ZM55.0166 57.4373C55.9832 56.4376 57.0154 55.5028 57.9164 54.455C61.2097 50.5861 62.6841 46.0239 62.9137 41.0749C62.9953 39.3501 62.7004 37.5929 62.3892 35.8841C61.3898 30.2903 58.3752 25.825 53.9026 22.3752C49.6756 19.1027 44.7277 17.6519 39.3702 17.668C37.4532 17.668 35.5363 17.9743 33.6359 18.4902C29.9332 19.4735 26.722 21.2468 23.9531 23.7938C20.9385 26.5504 18.8578 29.9197 17.6454 33.7886C16.5641 37.222 16.3183 40.7363 16.9409 44.2505C17.5307 47.652 18.8742 50.8116 20.9385 53.6007C22.0199 55.0674 23.347 56.3731 24.5757 57.7434C24.674 57.6951 24.7559 57.6468 24.8542 57.5823C24.8542 55.9057 24.8542 54.2454 24.8542 52.5688C24.8542 52.3915 24.674 52.2141 24.5593 52.0691C22.3475 49.2481 20.9877 46.0399 20.5945 42.5419C20.1849 38.9149 20.7419 35.3521 22.4458 32.0637C23.7074 29.6456 25.3621 27.5338 27.5248 25.7605C30.3592 23.4391 33.5868 21.9883 37.1749 21.6175C40.2712 21.2951 43.4168 21.4724 46.448 22.5848C50.085 23.9389 53.0996 26.0668 55.3606 29.1137C58.5062 33.3372 59.6532 38.0926 58.8668 43.3157C58.408 46.314 57.2612 48.99 55.5081 51.4404C55.2461 51.795 54.9346 52.2304 54.9346 52.6493C54.8692 54.2454 54.9346 55.8412 54.9346 57.4373C54.9346 57.4855 54.9346 57.5341 54.9346 57.5823C54.9837 57.5341 55.0331 57.5018 55.0822 57.4533L55.0166 57.4373ZM15.6138 84.568C15.6138 83.5041 15.5975 82.5207 15.6138 81.5534C15.6138 81.086 15.6466 80.6023 15.8268 80.1831C17.3669 76.282 18.9561 72.3808 20.5126 68.4797C21.6103 65.7232 22.6916 62.9665 23.7729 60.226C16.515 53.9067 14.7619 48.1839 14.2376 42.7515C13.5495 35.6908 15.6302 29.307 20.3651 23.9228C30.2935 12.6384 47.2508 12.5578 57.5561 22.2301C62.7498 27.0985 65.4201 33.2404 65.4039 40.2851C65.4039 48.3453 62.0943 55.0351 55.7539 60.1132C55.8359 60.4033 55.885 60.5969 55.9669 60.7742C58.3098 66.6258 60.6199 72.4776 62.9953 78.3132C63.6836 80.0058 64.2897 81.6824 64.0604 83.5363C64.0113 83.8747 64.0604 84.2133 64.0604 84.5517H77.1346C77.1346 84.2779 77.1837 84.052 77.1674 83.8264C77.1346 68.5442 77.1181 53.278 77.0036 37.9958C77.0036 35.8358 76.7412 33.6273 76.2825 31.5155C74.7426 24.487 71.3346 18.4096 66.2229 13.2994C64.8795 11.9614 63.3396 10.8007 61.8157 9.65615C55.672 5.11017 48.6924 2.86945 41.0577 2.54703C38.7804 2.45031 36.4538 2.57927 34.2094 2.91779C31.0146 3.38531 27.9181 4.25579 24.9362 5.52933C18.3663 8.33428 13.058 12.6868 9.044 18.4418C4.7187 24.6482 2.49052 31.5638 2.52329 39.1565C2.57244 53.9713 2.52329 68.7698 2.52329 83.5846C2.52329 83.907 2.52329 84.2133 2.52329 84.5517H15.6302L15.6138 84.568ZM60.9476 79.8768C60.6199 79.1353 60.325 78.5065 60.0629 77.8781C57.6706 71.8812 55.2461 65.8683 52.9194 59.8554C52.6902 59.2749 52.4279 59.2589 51.9691 59.2589C48.4141 59.2589 44.875 59.2589 41.3197 59.2589C36.7815 59.2589 32.2433 59.2589 27.6886 59.2749C27.3446 59.2749 26.8039 59.4685 26.6728 59.7263C26.1158 60.887 25.6734 62.0959 25.1983 63.2888C23.6091 67.303 22.0199 71.333 20.4306 75.3469C19.8408 76.8302 19.2674 78.3132 18.6448 79.8768H60.931H60.9476ZM56.4257 38.6568C56.4257 38.2217 56.4748 37.9798 56.4257 37.738C55.6063 33.8368 53.8532 30.4839 50.7241 27.8722C47.5785 25.2446 43.9412 23.955 39.8781 23.8905C38.256 23.8583 36.6014 24.1968 35.0121 24.5837C31.637 25.4058 28.8847 27.3242 26.7384 29.9517C24.0351 33.2886 22.6588 37.1092 23.0029 41.4781C23.1667 43.4608 23.6582 45.3307 24.3955 47.1523C24.6904 47.8779 25.0017 48.6516 26.0994 48.2002C26.3288 48.1034 26.6401 48.2002 26.9022 48.2002C35.389 48.2002 43.8756 48.2002 52.3625 48.2002C52.9194 48.2002 53.4764 48.3613 54.0171 48.3453C54.2629 48.3453 54.6397 48.1517 54.7217 47.9424C55.2132 46.7495 55.7374 45.5565 56.0488 44.3151C56.5401 42.3969 56.8844 40.4462 56.4091 38.6731L56.4257 38.6568ZM18.1369 88.5014H61.4883V82.4077H18.1697V88.5014H18.1369ZM27.3773 50.6826V56.76H52.2806V50.6826H27.3773Z" fill="#5C2D91"/>
</g>
<defs>
<clipPath id="clip0_483_230">
<rect width="80" height="91" fill="white"/>
</clipPath>
</defs>
</svg>
