<svg width="30" height="30" viewBox="0 0 30 30" fill="none" xmlns="http://www.w3.org/2000/svg">
<g clip-path="url(#clip0_486_244)">
<mask id="mask0_486_244" style="mask-type:luminance" maskUnits="userSpaceOnUse" x="0" y="0" width="30" height="30">
<path d="M29.5775 0H0V29.5775H29.5775V0Z" fill="white"/>
</mask>
<g mask="url(#mask0_486_244)">
<path d="M29.5775 14.8785C29.5775 6.66085 22.957 0 14.7887 0C6.62043 0 0 6.66085 0 14.8785C0 22.3063 5.40676 28.4614 12.4777 29.5775V19.18H8.72339V14.8775H12.4777V11.6003C12.4777 7.87155 14.6852 5.81098 18.064 5.81098C19.6808 5.81098 21.3746 6.10183 21.3746 6.10183V9.76352H19.5083C17.6715 9.76352 17.0998 10.9111 17.0998 12.0883V14.8785H21.2011L20.5455 19.1791H17.0998V29.5775C24.1707 28.4614 29.5775 22.3063 29.5775 14.8785Z" fill="#F7941D"/>
</g>
</g>
<defs>
<clipPath id="clip0_486_244">
<rect width="30" height="30" fill="white"/>
</clipPath>
</defs>
</svg>
