<svg width="40" height="40" viewBox="0 0 40 40" fill="none" xmlns="http://www.w3.org/2000/svg">
<path d="M31.9717 16.4919L35.3 13.1636L25.315 3.17855L21.9867 6.50689L31.9717 16.4919Z" stroke="#5C2D91" stroke-width="2" stroke-miterlimit="10"/>
<path d="M30.3072 14.8281L9.20725 35.9281C7.36904 37.7663 4.38873 37.7663 2.55053 35.9281C0.712324 34.0899 0.712324 31.1096 2.55053 29.2714L23.6505 8.17139" stroke="#5C2D91" stroke-width="2" stroke-miterlimit="10"/>
<path d="M19.1924 12.6294L22.5208 15.9578L9.20727 29.2713L5.87891 25.9428" stroke="#5C2D91" stroke-width="2" stroke-miterlimit="10"/>
<path d="M31.7676 25.6767C31.7676 23.727 35.2979 19.793 35.2979 19.793C35.2979 19.793 38.8281 23.727 38.8281 25.6767C38.8281 27.6265 37.2476 29.207 35.2978 29.207C33.348 29.207 31.7676 27.6264 31.7676 25.6767Z" stroke="#5C2D91" stroke-width="2" stroke-miterlimit="10"/>
</svg>
