<svg width="40" height="40" viewBox="0 0 40 40" fill="none" xmlns="http://www.w3.org/2000/svg">
<g clip-path="url(#clip0_70_438)">
<path d="M9.03174 1.12427H5.59424V6.50231H9.03174V1.12427Z" stroke="#5C2D91" stroke-width="1.46094" stroke-miterlimit="10" stroke-linecap="round" stroke-linejoin="round"/>
<path d="M26.2415 1.12427H22.804V6.50231H26.2415V1.12427Z" stroke="#5C2D91" stroke-width="1.46094" stroke-miterlimit="10" stroke-linecap="round" stroke-linejoin="round"/>
<path d="M23.0839 29.2832H2.815C1.73492 29.2832 0.859375 28.4075 0.859375 27.3275V5.7691C0.859375 4.68902 1.73492 3.81348 2.815 3.81348H5.59422" stroke="#5C2D91" stroke-width="1.46094" stroke-miterlimit="10" stroke-linejoin="round"/>
<path d="M26.2415 3.81348H29.0331C30.1132 3.81348 30.9887 4.68902 30.9887 5.7691V22.6807" stroke="#5C2D91" stroke-width="1.46094" stroke-miterlimit="10" stroke-linejoin="round"/>
<path d="M9.03174 3.81348H14.1991" stroke="#5C2D91" stroke-width="1.46094" stroke-miterlimit="10" stroke-linejoin="round"/>
<path d="M17.6365 3.81348H22.8038" stroke="#5C2D91" stroke-width="1.46094" stroke-miterlimit="10" stroke-linejoin="round"/>
<path d="M30.9886 10.8049H0.859375" stroke="#5C2D91" stroke-width="1.46094" stroke-miterlimit="10" stroke-linejoin="round"/>
<path d="M17.6365 1.12427H14.199V6.50231H17.6365V1.12427Z" stroke="#5C2D91" stroke-width="1.46094" stroke-miterlimit="10" stroke-linecap="round" stroke-linejoin="round"/>
<path d="M31.0431 38.8757C35.5152 38.8757 39.1406 35.2503 39.1406 30.7782C39.1406 26.306 35.5152 22.6807 31.0431 22.6807C26.5709 22.6807 22.9456 26.306 22.9456 30.7782C22.9456 35.2503 26.5709 38.8757 31.0431 38.8757Z" stroke="#5C2D91" stroke-width="1.46094" stroke-miterlimit="10" stroke-linecap="round" stroke-linejoin="round"/>
<path d="M18.0692 20.0439H13.7668" stroke="#5C2D91" stroke-width="1.46094" stroke-miterlimit="10" stroke-linecap="round" stroke-linejoin="round"/>
<path d="M18.0692 24.9807H13.7668" stroke="#5C2D91" stroke-width="1.46094" stroke-miterlimit="10" stroke-linecap="round" stroke-linejoin="round"/>
<path d="M13.7668 15.1072H18.0692" stroke="#5C2D91" stroke-width="1.46094" stroke-miterlimit="10" stroke-linecap="round" stroke-linejoin="round"/>
<path d="M26.674 20.0439H22.3716" stroke="#5C2D91" stroke-width="1.46094" stroke-miterlimit="10" stroke-linecap="round" stroke-linejoin="round"/>
<path d="M22.3716 15.1072H26.674" stroke="#5C2D91" stroke-width="1.46094" stroke-miterlimit="10" stroke-linecap="round" stroke-linejoin="round"/>
<path d="M9.46429 20.0439H5.16187" stroke="#5C2D91" stroke-width="1.46094" stroke-miterlimit="10" stroke-linecap="round" stroke-linejoin="round"/>
<path d="M9.46429 24.9807H5.16187" stroke="#5C2D91" stroke-width="1.46094" stroke-miterlimit="10" stroke-linecap="round" stroke-linejoin="round"/>
<path d="M5.16187 15.1072H9.46429" stroke="#5C2D91" stroke-width="1.46094" stroke-miterlimit="10" stroke-linecap="round" stroke-linejoin="round"/>
<path d="M33.9846 29.0594H32.762V27.8369C32.762 26.8877 31.9925 26.1182 31.0433 26.1182C30.0941 26.1182 29.3245 26.8877 29.3245 27.8369V29.0594H28.1021C27.1528 29.0594 26.3833 29.8289 26.3833 30.7782C26.3833 31.7274 27.1528 32.4969 28.1021 32.4969H29.3245V33.7194C29.3245 34.6686 30.0941 35.4382 31.0433 35.4382C31.9925 35.4382 32.762 34.6686 32.762 33.7194V32.4969H33.9846C34.9338 32.4969 35.7033 31.7274 35.7033 30.7782C35.7033 29.8289 34.9338 29.0594 33.9846 29.0594Z" stroke="#5C2D91" stroke-width="1.46094" stroke-miterlimit="10" stroke-linecap="round" stroke-linejoin="round"/>
</g>
<defs>
<clipPath id="clip0_70_438">
<rect width="40" height="40" fill="white"/>
</clipPath>
</defs>
</svg>
