<svg width="50" height="50" viewBox="0 0 50 50" fill="none" xmlns="http://www.w3.org/2000/svg">
<g clip-path="url(#clip0_70_211)">
<path fill-rule="evenodd" clip-rule="evenodd" d="M37.9563 49.9999H12.0441C10.297 49.9999 8.87598 48.5779 8.87598 46.8321L8.87609 8.46667C8.87609 6.71993 10.2969 5.29894 12.0439 5.29894L17.4527 5.29883C17.8124 5.29883 18.1044 5.59079 18.1044 5.95105C18.1049 6.31117 17.8124 6.6031 17.4523 6.6031H12.0441C11.0159 6.6031 10.1803 7.43922 10.1803 8.46671L10.1804 46.8322C10.1804 47.859 11.0158 48.6959 12.0439 48.6959L37.9563 48.6958C38.9835 48.6958 39.8197 47.8592 39.8197 46.8323L39.82 8.46682C39.82 7.4393 38.983 6.60324 37.9562 6.60324H32.5466C32.1869 6.60324 31.8945 6.31135 31.8945 5.9512C31.8945 5.59094 32.1865 5.29908 32.5465 5.29908L37.9563 5.29897C39.7023 5.29897 41.124 6.72011 41.124 8.46685L41.1243 46.8323C41.1243 48.5782 39.7019 50 37.9563 49.9999Z" fill="#F7941D"/>
<path fill-rule="evenodd" clip-rule="evenodd" d="M18.1047 9.08833H31.8944V4.66905H30.2824C30.0536 4.66905 29.8405 4.54856 29.7228 4.35181L27.9 1.30427H22.0991L20.2761 4.35177C20.1585 4.54853 19.9463 4.66916 19.7166 4.66916L18.1047 4.66905V9.08833ZM32.5465 10.3925H17.4526C17.0924 10.3925 16.8 10.1006 16.8 9.74034L16.8004 4.01704C16.8004 3.65681 17.0921 3.36492 17.4521 3.36492H19.3463L21.1692 0.317277C21.2869 0.120523 21.4997 3.59185e-05 21.7295 3.59185e-05L28.2704 0C28.5002 0 28.7118 0.120631 28.8294 0.317385L30.6523 3.36492H32.5465C32.9077 3.36492 33.1986 3.65689 33.1986 4.01704V9.74034C33.1986 10.1005 32.9075 10.3925 32.5465 10.3925Z" fill="#F7941D"/>
<path fill-rule="evenodd" clip-rule="evenodd" d="M24.0642 3.66291C23.7167 3.66291 23.4346 3.94521 23.4346 4.29225L23.4349 6.10042C23.4349 6.44735 23.7166 6.72983 24.0641 6.72983L25.9361 6.72972C26.2825 6.72972 26.5641 6.44746 26.5641 6.10045L26.5642 4.29225C26.5642 3.94514 26.2821 3.66299 25.9357 3.66299L24.0642 3.66291ZM25.9361 8.03399H24.0642C22.9978 8.03399 22.1304 7.16661 22.1304 6.10045L22.1307 4.29225C22.1307 3.22602 22.9976 2.35872 24.0641 2.35872L25.9361 2.35864C27.0013 2.35864 27.8683 3.22606 27.8683 4.29225L27.8684 6.10042C27.8684 7.16661 27.001 8.0341 25.9361 8.03399Z" fill="#F7941D"/>
<path fill-rule="evenodd" clip-rule="evenodd" d="M13.4669 20.9389C13.4638 21.6562 13.5291 23.2838 14.093 24.9969C15.0544 27.9193 16.9687 29.7421 19.7832 30.4166C22.6106 29.7391 24.5294 27.904 25.486 24.96C26.0424 23.2527 26.1055 21.6495 26.1009 20.9391C22.7237 19.3827 21.2699 17.0934 20.3879 15.7055C20.1844 15.3856 19.9407 15.0008 19.7832 14.833C19.627 15.0007 19.3825 15.3857 19.1787 15.7056C18.2983 17.0933 16.843 19.3825 13.4669 20.9389ZM19.7834 31.738C19.736 31.738 19.6882 31.7329 19.6417 31.7225C16.3021 30.9758 13.9502 28.777 12.8396 25.3635C12.0189 22.8394 12.1694 20.5592 12.1762 20.4633C12.1931 20.2191 12.3459 20.0052 12.5713 19.9094C15.8502 18.5126 17.1906 16.4026 18.0782 15.0063C18.6448 14.1155 19.053 13.472 19.7832 13.472C20.5151 13.472 20.9234 14.1156 21.4884 15.0061C22.3762 16.4025 23.7166 18.5126 26.9964 19.9094C27.2219 20.0051 27.3734 20.2192 27.3915 20.4633C27.3987 20.5591 27.5477 22.8394 26.727 25.3635C25.6165 28.7769 23.2647 30.9759 19.926 31.7225C19.8797 31.7329 19.8308 31.7381 19.7834 31.738Z" fill="#F7941D"/>
<path fill-rule="evenodd" clip-rule="evenodd" d="M16.9859 24.5584L18.4976 26.0704L22.5821 21.9859L21.9539 21.3583L18.9581 24.3541C18.7034 24.6088 18.2911 24.6088 18.0364 24.3541L17.6131 23.9308L16.9859 24.5584ZM18.4976 27.6447C18.331 27.6447 18.1631 27.5812 18.0364 27.4538L15.6027 25.0196C15.3479 24.765 15.3475 24.3521 15.6022 24.0973L17.1525 22.5474C17.4072 22.2927 17.819 22.2929 18.0738 22.5475L18.4976 22.9707L21.4933 19.975C21.748 19.7202 22.1609 19.7203 22.4157 19.975L23.9658 21.5247C24.0881 21.6471 24.1557 21.813 24.1557 21.9859C24.1559 22.1587 24.0878 22.3247 23.9656 22.4469L18.9581 27.4538C18.8313 27.5811 18.6636 27.6448 18.4976 27.6447Z" fill="#F7941D"/>
<path fill-rule="evenodd" clip-rule="evenodd" d="M37.1852 15.2382H23.6008C23.2401 15.2382 22.9487 14.9463 22.9487 14.5862C22.9487 14.2259 23.2397 13.934 23.6008 13.934L37.1852 13.934C37.5464 13.934 37.837 14.226 37.837 14.5862C37.8373 14.9463 37.546 15.2383 37.1852 15.2382Z" fill="#F7941D"/>
<path fill-rule="evenodd" clip-rule="evenodd" d="M37.1853 18.4456H26.6197C26.2595 18.4456 25.9673 18.1538 25.9673 17.7937C25.9675 17.4335 26.2593 17.1416 26.6194 17.1416L37.1853 17.1415C37.5465 17.1415 37.8371 17.4335 37.8371 17.7937C37.8374 18.1538 37.5461 18.4457 37.1853 18.4456Z" fill="#F7941D"/>
<path fill-rule="evenodd" clip-rule="evenodd" d="M37.1854 21.6533H28.968C28.6078 21.6533 28.3154 21.3614 28.3154 21.0012C28.3158 20.641 28.6075 20.3492 28.9676 20.3492L37.1854 20.3491C37.5466 20.3491 37.8372 20.6411 37.8372 21.0012C37.8375 21.3613 37.5462 21.6534 37.1854 21.6533Z" fill="#F7941D"/>
<path fill-rule="evenodd" clip-rule="evenodd" d="M37.1854 24.8609H28.968C28.6078 24.8609 28.3154 24.5689 28.3154 24.2088C28.3158 23.8486 28.6075 23.5567 28.9676 23.5567L37.1854 23.5566C37.5466 23.5566 37.8372 23.8486 37.8372 24.2088C37.8375 24.5688 37.5462 24.8609 37.1854 24.8609Z" fill="#F7941D"/>
<path fill-rule="evenodd" clip-rule="evenodd" d="M37.1854 28.0686H28.0029C27.6433 28.0686 27.3508 27.7766 27.3508 27.4164C27.3513 27.0562 27.6429 26.7643 28.0029 26.7643H37.1854C37.5466 26.7643 37.8372 27.0563 37.8372 27.4164C37.8375 27.7765 37.5461 28.0686 37.1854 28.0686Z" fill="#F7941D"/>
<path fill-rule="evenodd" clip-rule="evenodd" d="M37.1852 31.2761H26.2267C25.8665 31.2761 25.5742 30.9841 25.5742 30.624C25.5746 30.2637 25.8663 29.9718 26.2264 29.9718H37.1852C37.5464 29.9718 37.837 30.2638 37.837 30.624C37.8373 30.984 37.546 31.2761 37.1852 31.2761Z" fill="#F7941D"/>
<path fill-rule="evenodd" clip-rule="evenodd" d="M13.4658 44.3116H36.5341V34.9299H13.4658V44.3116ZM37.1862 45.6163H12.8136C12.4534 45.6163 12.1614 45.3239 12.1614 44.9638L12.1615 34.2777C12.1615 33.9176 12.4534 33.6258 12.8134 33.6258L37.1862 33.6257C37.5465 33.6257 37.8381 33.9177 37.8381 34.2778L37.8384 44.9638C37.8384 45.3238 37.546 45.6163 37.1862 45.6163Z" fill="#F7941D"/>
<path fill-rule="evenodd" clip-rule="evenodd" d="M22.6126 42.7482C22.5846 42.7482 22.556 42.7465 22.5265 42.7427C22.2651 42.7081 22.0499 42.5197 21.982 42.2649L21.1295 39.0808L19.4701 40.6333C19.3499 40.7463 19.19 40.8093 19.0247 40.8093L15.1879 40.8092C14.8277 40.8092 14.5356 40.5173 14.5356 40.1571C14.5358 39.7969 14.8277 39.505 15.1878 39.505L18.767 39.505L21.0322 37.3854C21.1998 37.2287 21.4362 37.1715 21.657 37.2345C21.8769 37.2974 22.0477 37.4714 22.1077 37.6927L22.8347 40.4065L23.7869 38.7578C23.9036 38.5559 24.1185 38.4318 24.3516 38.4318L27.8934 38.4317L28.8252 36.8194C28.9418 36.6176 29.1566 36.4933 29.3887 36.4933C29.622 36.4933 29.8371 36.6176 29.9537 36.8194L31.1724 38.9287H34.8111C35.1708 38.9287 35.4628 39.2206 35.4628 39.5808C35.4632 39.9408 35.1708 40.2329 34.8107 40.2329H30.7949C30.5631 40.2329 30.3466 40.1086 30.2299 39.9068L29.3892 38.4497L28.8354 39.4098C28.7187 39.6117 28.5033 39.736 28.2701 39.736L24.728 39.7359L23.1766 42.422C23.0599 42.6256 22.8424 42.7482 22.6126 42.7482Z" fill="#F7941D"/>
</g>
<defs>
<clipPath id="clip0_70_211">
<rect width="50" height="50" fill="white"/>
</clipPath>
</defs>
</svg>
