<svg width="49" height="50" viewBox="0 0 49 50" fill="none" xmlns="http://www.w3.org/2000/svg">
<path d="M31.1959 9.93667C29.2108 7.90082 26.5102 6.76007 23.6959 6.7686H23.6942C18.6353 6.77073 14.2819 10.419 13.2965 15.4822C12.311 20.5458 14.9681 25.6146 19.6429 27.589C24.3174 29.563 29.7077 27.8931 32.5173 23.6C35.327 19.307 34.7737 13.5862 31.1959 9.93667ZM30.2911 24.3118C27.3096 27.3604 22.6929 27.9843 19.0361 25.8333C15.3794 23.6823 13.5948 19.2925 14.6864 15.1321C15.778 10.9712 19.4724 8.07822 23.6934 8.07865H23.6959C27.4655 8.07737 30.8649 10.3934 32.3084 13.9465C33.7523 17.5001 32.9561 21.5906 30.2911 24.3118Z" fill="#F7941D"/>
<path d="M33.6086 7.47131C28.1414 1.89296 19.2485 1.89126 13.7838 7.46705C8.31955 13.0428 8.32122 22.1176 13.788 27.6964C15.9098 29.8683 18.6618 31.2832 21.6348 31.731V36.4628H21.3799V36.4573C21.2052 36.4475 21.0351 36.5166 20.9148 36.6462C20.7927 36.7682 20.7233 36.9345 20.7213 37.1085L20.7204 46.965C20.7179 47.7692 21.0293 48.5415 21.5859 49.1108C22.1426 49.6806 22.8986 50.0004 23.6868 50H23.7161C23.7616 50 23.8072 49.9927 23.8527 49.9906C25.4303 49.8993 26.6653 48.5692 26.6686 46.9564L26.667 37.114C26.667 36.9409 26.5988 36.7746 26.4785 36.6526C26.3581 36.5302 26.1947 36.462 26.025 36.4628H25.7689V31.7314C28.7403 31.2858 31.4918 29.873 33.6128 27.7032C39.077 22.1274 39.0758 13.0501 33.6086 7.47131ZM23.7909 48.6763C23.7662 48.6776 23.7411 48.684 23.7161 48.684C23.7098 48.684 23.7043 48.6899 23.6964 48.6899H23.6922C22.7569 48.6878 22.0005 47.9125 22.0018 46.9586L21.9997 37.7648L25.3835 37.7639L25.3852 46.9603C25.384 47.8729 24.6844 48.626 23.7909 48.6763ZM24.485 36.4518H22.9191V31.8581C23.1807 31.873 23.4432 31.8815 23.7048 31.8815C23.9651 31.8815 24.2251 31.873 24.485 31.8585V36.4518ZM14.6957 26.7697C9.7296 21.7018 9.72751 13.4582 14.6915 8.39329C19.6689 3.32796 27.7251 3.33009 32.7004 8.39755C37.6666 13.465 37.6686 21.7087 32.705 26.774C27.741 31.8393 19.6623 31.8376 14.6957 26.7701V26.7697Z" fill="#F7941D"/>
<path d="M27.4957 13.1004C27.8501 13.1004 28.1376 12.8071 28.1376 12.4454C28.1376 12.0838 27.8501 11.7904 27.4957 11.7904H19.9034C19.549 11.7904 19.2615 12.0838 19.2615 12.4454C19.2615 12.8071 19.549 13.1004 19.9034 13.1004H22.0753C23.2889 13.1107 24.3371 13.9683 24.6108 15.1747H19.9034C19.549 15.1747 19.2615 15.4681 19.2615 15.8297C19.2615 16.1913 19.549 16.4847 19.9034 16.4847H24.6117C24.2894 17.6425 23.2559 18.4438 22.0761 18.4498H19.9034C19.638 18.4575 19.4031 18.6268 19.307 18.8792C19.2109 19.1317 19.2723 19.4183 19.4625 19.6072L24.8929 24.8473C25.0158 24.9672 25.1809 25.0324 25.3514 25.0282C25.5215 25.0239 25.6832 24.9505 25.8002 24.8243C26.0434 24.5548 26.0322 24.1369 25.7747 23.8819L21.517 19.7598H22.0753C23.9676 19.7684 25.5908 18.3858 25.921 16.4847H27.4953C27.8497 16.4847 28.1372 16.1913 28.1372 15.8297C28.1372 15.4681 27.8497 15.1747 27.4953 15.1747H25.9214C25.8002 14.4054 25.4688 13.6864 24.9652 13.1004H27.4957Z" fill="#F7941D"/>
<path d="M8.47235 4.0393H9.63208C9.98647 4.0393 10.274 3.74591 10.274 3.38428C10.274 3.02265 9.98647 2.72926 9.63208 2.72926H8.47235C8.3754 2.21667 8.16895 1.73223 7.86721 1.31004H9.63249C9.98731 1.31004 10.2744 1.01665 10.2744 0.655022C10.2744 0.293395 9.98731 0 9.63249 0H3.5309C3.1765 0 2.88898 0.293395 2.88898 0.655022C2.88898 1.01665 3.1765 1.31004 3.5309 1.31004H5.27654C6.14037 1.30279 6.90307 1.88276 7.14338 2.72926H3.5309C3.1765 2.72926 2.88898 3.02265 2.88898 3.38428C2.88898 3.74591 3.1765 4.0393 3.5309 4.0393H7.14338C6.8546 4.8342 6.10736 5.3583 5.27654 5.34934H3.5309C3.26719 5.3502 3.03107 5.51481 2.93369 5.7647C2.83674 6.0146 2.89859 6.29989 3.08999 6.48455L7.45347 10.6927C7.62022 10.8569 7.86011 10.9166 8.08202 10.8497C8.30352 10.7827 8.47319 10.5993 8.52543 10.3695C8.57809 10.1396 8.50537 9.89868 8.33528 9.73876L5.1449 6.65939H5.27654C6.85418 6.65939 8.17354 5.56769 8.47235 4.0393Z" fill="#F7941D"/>
<path d="M45.4338 3.27513C45.7886 3.27513 46.0757 2.98174 46.0757 2.62011C46.0757 2.25848 45.7886 1.96509 45.4338 1.96509H40.4798C40.1254 1.96509 39.8379 2.25848 39.8379 2.62011C39.8379 2.98174 40.1254 3.27513 40.4798 3.27513H41.8974C42.4858 3.27513 42.9932 3.71181 43.2331 4.14849H40.4798C40.1254 4.14849 39.8379 4.44189 39.8379 4.80352C39.8379 5.16514 40.1254 5.45854 40.4798 5.45854H43.2331C43.0007 5.99714 42.4745 6.34171 41.8974 6.3319H40.4798C40.2165 6.33361 39.9804 6.49864 39.8834 6.74854C39.7865 6.99844 39.8479 7.2833 40.0389 7.46838L43.582 10.8855C43.7471 11.0556 43.9895 11.1205 44.2147 11.0544C44.44 10.9887 44.6126 10.8032 44.6644 10.5699C44.7162 10.3367 44.6393 10.0932 44.4642 9.93452L42.0871 7.63171C43.2987 7.5477 44.3142 6.66581 44.5892 5.45854H45.4346C45.789 5.45854 46.0766 5.16514 46.0766 4.80352C46.0766 4.44189 45.789 4.14849 45.4346 4.14849H44.5892C44.5169 3.82098 44.3949 3.60264 44.2323 3.27513H45.4338Z" fill="#F7941D"/>
<path d="M40.9663 34.1703C41.3207 34.1703 41.6082 33.8769 41.6082 33.5153C41.6082 33.1536 41.3207 32.8602 40.9663 32.8602H36.3888C36.0344 32.8602 35.7469 33.1536 35.7469 33.5153C35.7469 33.8769 36.0344 34.1703 36.3888 34.1703H37.6986C38.1946 34.1703 38.6272 34.4978 38.8533 34.8253H36.3888C36.0344 34.8253 35.7469 35.1187 35.7469 35.4803C35.7469 35.8419 36.0344 36.1353 36.3888 36.1353H38.8533C38.6272 36.572 38.1946 36.8995 37.6986 36.8995H36.3888C36.128 36.8931 35.8902 37.0522 35.7924 37.2991C35.6942 37.546 35.7561 37.8292 35.9479 38.01L39.2219 41.1631C39.4801 41.4113 39.8872 41.399 40.1308 41.1354C40.3741 40.8715 40.362 40.4561 40.1037 40.2079L37.9861 38.1443C39.0723 38.0228 39.9662 37.2189 40.222 36.1353H40.9663C41.3207 36.1353 41.6082 35.8419 41.6082 35.4803C41.6082 35.1187 41.3207 34.8253 40.9663 34.8253H40.224C40.1572 34.5959 40.0627 34.3762 39.9428 34.1703H40.9663Z" fill="#F7941D"/>
</svg>
