<svg width="40" height="40" viewBox="0 0 40 40" fill="none" xmlns="http://www.w3.org/2000/svg">
<g clip-path="url(#clip0_70_529)">
<path d="M27.8799 14.4531H36.4062L34.8151 9.76561L36.4062 5.07812H27.8115" stroke="#F7941D" stroke-width="1.5" stroke-miterlimit="2.6131" stroke-linecap="round" stroke-linejoin="round"/>
<path d="M12.1411 5.07812H3.59375L5.18476 9.76561L3.59375 14.4531H12.2193" stroke="#F7941D" stroke-width="1.5" stroke-miterlimit="2.6131" stroke-linecap="round" stroke-linejoin="round"/>
<path fill-rule="evenodd" clip-rule="evenodd" d="M18.3916 4.94147H21.6077V8.15755H24.8238V11.3736H21.6077V14.5897H18.3916V11.3736H15.1755V8.15755H18.3916V4.94147Z" stroke="#F7941D" stroke-width="1.5" stroke-miterlimit="2.6131" stroke-linecap="round" stroke-linejoin="round"/>
<path fill-rule="evenodd" clip-rule="evenodd" d="M28.8249 9.16005L27.9534 7.63201L27.9446 5.98615C27.9813 5.52975 27.7604 5.071 27.3385 4.82475L25.8253 3.94046L24.941 2.42749C24.7292 2.06546 24.3334 1.82375 23.8836 1.82195L22.1334 1.81265L20.626 0.953125C20.2597 0.736251 19.7908 0.716172 19.3941 0.941328L17.866 1.81273L16.22 1.82148C15.7636 1.78484 15.3048 2.0057 15.0585 2.42757L14.1741 3.94053L12.661 4.82483C12.2856 5.04444 12.0571 5.44787 12.0554 5.88209L12.0461 7.63201L11.1864 9.13942C10.9587 9.52379 10.9587 10.0074 11.1864 10.3918L12.0461 11.8993L12.0554 13.6492C12.057 14.0834 12.2856 14.4869 12.661 14.7064L14.1741 15.5907L15.0585 17.1037C15.3048 17.5256 15.7636 17.7464 16.22 17.7098L17.866 17.7185L19.3941 18.5899C19.7908 18.8151 20.2597 18.795 20.626 18.5781L22.1335 17.7185L23.8836 17.7092C24.3334 17.7075 24.7293 17.4657 24.9411 17.1037L25.8254 15.5907L27.3385 14.7064C27.7605 14.4602 27.9814 14.0014 27.9447 13.545L27.9535 11.8992L28.8249 10.3711C29.0374 9.99684 29.0374 9.53434 28.8249 9.16005Z" stroke="#F7941D" stroke-width="1.5" stroke-miterlimit="2.6131" stroke-linecap="round" stroke-linejoin="round"/>
<path d="M27.067 36.2896H39.2184V34.4519C39.2184 30.4744 36.094 27.2198 32.2752 27.2198C29.0169 27.2198 26.2646 29.5892 25.5266 32.7554" stroke="#F7941D" stroke-width="1.5" stroke-miterlimit="2.6131" stroke-linecap="round" stroke-linejoin="round"/>
<path d="M33.7708 26.9221C35.7634 26.0967 36.7096 23.8123 35.8842 21.8196C35.0589 19.827 32.7744 18.8808 30.7818 19.7062C28.7892 20.5316 27.8429 22.816 28.6683 24.8086C29.4937 26.8013 31.7782 27.7475 33.7708 26.9221Z" stroke="#F7941D" stroke-width="1.5" stroke-miterlimit="2.6131" stroke-linecap="round" stroke-linejoin="round"/>
<path fill-rule="evenodd" clip-rule="evenodd" d="M13.0566 37.3811V39.2187H26.9431V37.3811C26.9431 33.4036 23.8187 30.149 19.9999 30.149C16.1812 30.1491 13.0566 33.4034 13.0566 37.3811Z" stroke="#F7941D" stroke-width="1.5" stroke-miterlimit="2.6131" stroke-linecap="round" stroke-linejoin="round"/>
<path d="M21.3292 29.9167C23.3572 29.1825 24.406 26.9434 23.6719 24.9154C22.9377 22.8874 20.6985 21.8385 18.6705 22.5727C16.6425 23.3068 15.5937 25.546 16.3278 27.574C17.062 29.602 19.3012 30.6508 21.3292 29.9167Z" stroke="#F7941D" stroke-width="1.5" stroke-miterlimit="2.6131" stroke-linecap="round" stroke-linejoin="round"/>
<path d="M12.9327 36.2896H0.78125V34.4519C0.78125 30.4744 3.90569 27.2198 7.7245 27.2198C10.9828 27.2198 13.7351 29.5891 14.4731 32.7553" stroke="#F7941D" stroke-width="1.5" stroke-miterlimit="2.6131" stroke-linecap="round" stroke-linejoin="round"/>
<path d="M9.21951 26.9225C11.2121 26.0971 12.1584 23.8127 11.333 21.8201C10.5076 19.8275 8.22314 18.8812 6.23052 19.7066C4.2379 20.532 3.29167 22.8164 4.11706 24.8091C4.94244 26.8017 7.22689 27.7479 9.21951 26.9225Z" stroke="#F7941D" stroke-width="1.5" stroke-miterlimit="2.6131" stroke-linecap="round" stroke-linejoin="round"/>
</g>
<defs>
<clipPath id="clip0_70_529">
<rect width="40" height="40" fill="white"/>
</clipPath>
</defs>
</svg>
