<svg width="50" height="50" viewBox="0 0 50 50" fill="none" xmlns="http://www.w3.org/2000/svg">
<g clip-path="url(#clip0_70_229)">
<path d="M44.6568 9.54649L25.3855 0.081513C25.1631 -0.0273337 24.9033 -0.0273337 24.6809 0.081513L5.40802 9.51918C5.13337 9.653 4.95859 9.93116 4.95703 10.2366V28.2923C4.95703 30.4887 5.66122 33.025 6.93383 35.4344C8.20839 37.847 9.91404 39.8589 11.7336 41.0999L24.5806 49.8611C24.8526 50.0464 25.2099 50.0464 25.4815 49.8611L38.3277 41.0995C40.15 39.8574 41.8572 37.8494 43.1291 35.445C44.4021 33.039 45.1066 30.4989 45.1066 28.2923V10.2636C45.1055 9.95847 44.9311 9.68031 44.6568 9.54649ZM43.5083 28.2923C43.5083 32.343 40.7801 37.4959 37.4308 39.7797L25.0332 48.2339L12.6364 39.7793C11.0279 38.6827 9.50245 36.8752 8.34727 34.6877C7.19404 32.5046 6.55501 30.2336 6.55501 28.2923V10.7348L25.0316 1.68963L43.5083 10.7614V28.2923Z" fill="#F7941D"/>
<path d="M9.75635 25.0001C9.75635 33.423 16.6086 40.2753 25.0316 40.2753C33.4541 40.2753 40.3068 33.423 40.3068 25.0001C40.3068 16.5775 33.4541 9.72485 25.0316 9.72485C16.6086 9.72485 9.75635 16.5775 9.75635 25.0001ZM25.0316 11.3228C32.5732 11.3228 38.7088 17.4584 38.7088 25.0001C38.7088 32.5417 32.5732 38.6773 25.0316 38.6773C17.4899 38.6773 11.3543 32.5417 11.3543 25.0001C11.3543 17.4584 17.4899 11.3228 25.0316 11.3228Z" fill="#F7941D"/>
<path d="M17.5056 25.4365C17.5735 25.8181 17.9044 26.0966 18.2918 26.0986H21.5361V29.962C21.5361 32.92 23.9717 35.3263 26.9293 35.3263C29.8869 35.3263 32.3224 32.92 32.3224 29.962V24.222C33.5346 23.7933 34.254 22.5456 34.018 21.2816C33.7819 20.0176 32.6611 19.1137 31.3756 19.1507C30.0905 19.1882 29.0235 20.1553 28.8612 21.431C28.6989 22.7064 29.4893 23.9103 30.7245 24.2685V29.962C30.7245 32.0387 29.0059 33.7284 26.9293 33.7284C24.8526 33.7284 23.1341 32.0387 23.1341 29.962V26.0986H26.4155C26.8029 26.0966 27.1337 25.8181 27.202 25.4365L28.64 17.4525C28.6821 17.2196 28.6185 16.9796 28.4668 16.7978C28.315 16.616 28.0903 16.5111 27.8535 16.5107H26.4299V16.311C26.4299 15.8697 26.0721 15.512 25.6309 15.512C25.1897 15.512 24.8319 15.8697 24.8319 16.311V18.1087C24.8319 18.5499 25.1897 18.9077 25.6309 18.9077C26.0721 18.9077 26.4299 18.5499 26.4299 18.1087H26.8977L25.7476 24.5006H18.9593L17.8099 18.1087H18.0405C18.0405 18.5499 18.3983 18.9077 18.8395 18.9077C19.2807 18.9077 19.6385 18.5499 19.6385 18.1087V16.311C19.6385 15.8697 19.2807 15.512 18.8395 15.512C18.3983 15.512 18.0405 15.8697 18.0405 16.311V16.5107H16.8541C16.6169 16.5107 16.3922 16.616 16.2404 16.7978C16.0887 16.9796 16.0251 17.2196 16.0676 17.4529L17.5056 25.4365ZM31.4119 20.7783C31.9635 20.7783 32.4106 21.2254 32.4106 21.7771C32.4106 22.3287 31.9635 22.7758 31.4119 22.7758C30.8602 22.7758 30.4131 22.3287 30.4131 21.7771C30.4135 21.2254 30.8606 20.7783 31.4119 20.7783Z" fill="#F7941D"/>
</g>
<defs>
<clipPath id="clip0_70_229">
<rect width="50" height="50" fill="white"/>
</clipPath>
</defs>
</svg>
