<svg width="40" height="40" viewBox="0 0 40 40" fill="none" xmlns="http://www.w3.org/2000/svg">
<path d="M26.25 26.25H21.5625V21.5625H18.4375V26.25H13.75V29.375H18.4375V34.0625H21.5625V29.375H26.25V26.25Z" stroke="#5C2D91" stroke-width="1.5625" stroke-miterlimit="10" stroke-linecap="round" stroke-linejoin="round"/>
<mask id="mask0_70_472" style="mask-type:luminance" maskUnits="userSpaceOnUse" x="0" y="0" width="40" height="40">
<path d="M0 3.8147e-06H40V40H0V3.8147e-06Z" fill="white"/>
</mask>
<g mask="url(#mask0_70_472)">
<path d="M24.6875 3.125V5.46875H15.3125V2.34375C15.3125 1.48047 16.0117 0.78125 16.875 0.78125H23.125C23.9883 0.78125 24.6875 1.48047 24.6875 2.34375V3.125Z" stroke="#5C2D91" stroke-width="1.5625" stroke-miterlimit="10" stroke-linecap="round" stroke-linejoin="round"/>
<path d="M10.625 10.1562H29.375" stroke="#5C2D91" stroke-width="1.5625" stroke-miterlimit="10" stroke-linecap="round" stroke-linejoin="round"/>
<path d="M10.625 14.8438H29.375" stroke="#5C2D91" stroke-width="1.5625" stroke-miterlimit="10" stroke-linecap="round" stroke-linejoin="round"/>
<path d="M20.7812 39.2188C20.7812 39.6502 20.4314 40 20 40C19.5686 40 19.2188 39.6502 19.2188 39.2188C19.2188 38.7873 19.5686 38.4375 20 38.4375C20.4314 38.4375 20.7812 38.7873 20.7812 39.2188Z" fill="#5C2D91"/>
<path d="M24.6875 3.125H32.5C33.3633 3.125 34.0625 3.82422 34.0625 4.6875V37.6562C34.0625 38.5195 33.3633 39.2188 32.5 39.2188H23.5156" stroke="#5C2D91" stroke-width="1.5625" stroke-miterlimit="10" stroke-linecap="round" stroke-linejoin="round"/>
<path d="M16.4844 39.2188H7.5C6.63672 39.2188 5.9375 38.5195 5.9375 37.6562V4.6875C5.9375 3.82422 6.63672 3.125 7.5 3.125H15.3125" stroke="#5C2D91" stroke-width="1.5625" stroke-miterlimit="10" stroke-linecap="round" stroke-linejoin="round"/>
</g>
</svg>
