<svg width="40" height="40" viewBox="0 0 40 40" fill="none" xmlns="http://www.w3.org/2000/svg">
<path d="M18.7068 21.2163V27.7658" stroke="#F7941D" stroke-width="1.5" stroke-miterlimit="10" stroke-linecap="round" stroke-linejoin="round"/>
<path d="M23.8837 23.7962V12.2345C23.8837 10.8049 22.7248 9.646 21.2952 9.646C19.8657 9.646 18.7068 10.8049 18.7068 12.2345V18.4819" stroke="#F7941D" stroke-width="1.5" stroke-miterlimit="10" stroke-linecap="round" stroke-linejoin="round"/>
<path d="M23.8835 20.6472C23.8835 19.1934 25.0819 18.0196 26.5447 18.0597C27.9546 18.0984 29.0604 19.2907 29.0604 20.7011V21.9415C29.0604 20.4878 30.2588 19.3139 31.7216 19.354C33.1314 19.3927 34.2373 20.585 34.2373 21.9954V24.5301C34.2373 23.0764 35.4357 21.9025 36.8984 21.9426C38.3084 21.9813 39.4141 23.1735 39.4141 24.584V30.3544C39.4141 35.3581 35.358 39.4143 30.3546 39.4143H23.8835C18.8801 39.4143 14.824 35.3581 14.824 30.3544V25.1773C14.824 23.7477 15.9829 22.5888 17.4124 22.5888H18.7066" stroke="#F7941D" stroke-width="1.5" stroke-miterlimit="10" stroke-linecap="round" stroke-linejoin="round"/>
<path d="M29.0605 23.2358V21.9415" stroke="#F7941D" stroke-width="1.5" stroke-miterlimit="10" stroke-linecap="round" stroke-linejoin="round"/>
<path d="M5.35047 16.1172H3.17437C1.74484 16.1172 0.585938 14.9583 0.585938 13.5287V3.17445C0.585938 1.74484 1.74484 0.585938 3.17437 0.585938H27.7656C29.1952 0.585938 30.3541 1.74484 30.3541 3.17445V13.5286C30.3541 14.9582 29.1952 16.1171 27.7656 16.1171H23.8819" stroke="#F7941D" stroke-width="1.5" stroke-miterlimit="10" stroke-linecap="round" stroke-linejoin="round"/>
<path d="M18.705 16.1172H8.05981" stroke="#F7941D" stroke-width="1.5" stroke-miterlimit="10" stroke-linecap="round" stroke-linejoin="round"/>
<path d="M18.7049 13.5287H4.46854C3.75377 13.5287 3.17432 12.9492 3.17432 12.2344V4.46874C3.17432 3.75397 3.75377 3.17444 4.46854 3.17444H26.4713C27.1861 3.17444 27.7656 3.75389 27.7656 4.46874V12.2344C27.7656 12.9492 27.1861 13.5287 26.4713 13.5287H23.8833" stroke="#F7941D" stroke-width="1.5" stroke-miterlimit="10" stroke-linecap="round" stroke-linejoin="round"/>
<path d="M14.601 11.1808L11.8179 8.82157C11.5377 8.58439 11.5107 8.16189 11.7584 7.89103L12.6505 6.91525C12.8773 6.66728 13.2561 6.63407 13.5225 6.83884L14.6234 7.71025C14.746 7.80447 14.918 7.79884 15.0342 7.69681L17.4131 5.60689C17.68 5.37236 18.086 5.39689 18.3227 5.66173L19.1867 6.62822C19.4258 6.89564 19.4017 7.30657 19.133 7.54423L15.0245 11.1763C14.9041 11.2827 14.7237 11.2846 14.601 11.1808Z" stroke="#F7941D" stroke-width="1.5" stroke-miterlimit="10" stroke-linecap="round" stroke-linejoin="round"/>
</svg>
