<svg width="27" height="27" viewBox="0 0 27 27" fill="none" xmlns="http://www.w3.org/2000/svg">
<g clip-path="url(#clip0_486_258)">
<mask id="mask0_486_258" style="mask-type:luminance" maskUnits="userSpaceOnUse" x="0" y="0" width="27" height="27">
<path d="M26.6197 0H0V26.6197H26.6197V0Z" fill="white"/>
</mask>
<g mask="url(#mask0_486_258)">
<path fill-rule="evenodd" clip-rule="evenodd" d="M13.3099 0C9.6949 0 9.24237 0.0150845 7.82265 0.0798592C6.40559 0.144634 5.43752 0.370014 4.59101 0.699211C3.70369 1.03285 2.89889 1.55637 2.23339 2.23428C1.55656 2.89901 1.03272 3.70325 0.698324 4.59101C0.370901 5.43752 0.144634 6.40648 0.0798592 7.82354C0.0159718 9.24237 0 9.69401 0 13.3099C0 16.9257 0.0150845 17.3774 0.0798592 18.7971C0.144634 20.2141 0.370014 21.1822 0.699211 22.0287C1.03285 22.916 1.55637 23.7208 2.23428 24.3863C2.89902 25.0632 3.70326 25.587 4.59101 25.9214C5.43752 26.2497 6.40559 26.4751 7.82265 26.5399C9.24237 26.6046 9.6949 26.6197 13.3099 26.6197C16.9248 26.6197 17.3774 26.6046 18.7971 26.5399C20.2141 26.4751 21.1822 26.2497 22.0287 25.9205C22.916 25.5869 23.7208 25.0634 24.3863 24.3854C25.0632 23.7207 25.587 22.9165 25.9214 22.0287C26.2497 21.1822 26.4751 20.2141 26.5399 18.7971C26.6046 17.3774 26.6197 16.9248 26.6197 13.3099C26.6197 9.6949 26.6046 9.24237 26.5399 7.82265C26.4751 6.40559 26.2497 5.43752 25.9205 4.59101C25.5863 3.70286 25.0625 2.89828 24.3854 2.23339C23.7207 1.55656 22.9165 1.03272 22.0287 0.698324C21.1822 0.370901 20.2132 0.144634 18.7962 0.0798592C17.3774 0.0159718 16.9257 0 13.3099 0ZM13.3099 2.39844C16.8636 2.39844 17.2851 2.41175 18.6888 2.47563C19.9861 2.53508 20.6906 2.7507 21.16 2.93438C21.7811 3.17485 22.2248 3.46411 22.6906 3.92907C23.1565 4.39492 23.4449 4.83858 23.6853 5.4597C23.8681 5.9291 24.0846 6.63363 24.1441 7.9309C24.208 9.33465 24.2213 9.75613 24.2213 13.3099C24.2213 16.8636 24.208 17.2851 24.1441 18.6888C24.0846 19.9861 23.869 20.6906 23.6853 21.16C23.4724 21.7381 23.1324 22.2612 22.6906 22.6906C22.2612 23.1325 21.7383 23.4724 21.16 23.6853C20.6906 23.8681 19.9861 24.0846 18.6888 24.1441C17.2851 24.208 16.8645 24.2213 13.3099 24.2213C9.75524 24.2213 9.33465 24.208 7.9309 24.1441C6.63363 24.0846 5.9291 23.869 5.4597 23.6853C4.88157 23.4724 4.35854 23.1324 3.92907 22.6906C3.48735 22.2612 3.14746 21.7381 2.93438 21.16C2.75159 20.6906 2.53508 19.9861 2.47563 18.6888C2.41175 17.2851 2.39844 16.8636 2.39844 13.3099C2.39844 9.75613 2.41175 9.33465 2.47563 7.9309C2.53508 6.63363 2.7507 5.9291 2.93438 5.4597C3.17485 4.83858 3.46411 4.39492 3.92907 3.92907C4.35848 3.48723 4.88154 3.14732 5.4597 2.93438C5.9291 2.75159 6.63363 2.53508 7.9309 2.47563C9.33465 2.41175 9.75613 2.39844 13.3099 2.39844Z" fill="#F7941D"/>
<path fill-rule="evenodd" clip-rule="evenodd" d="M13.3081 17.7502C12.7249 17.7502 12.1474 17.6355 11.6085 17.4121C11.0697 17.189 10.5801 16.8619 10.1678 16.4495C9.75537 16.0371 9.42824 15.5476 9.20506 15.0087C8.98187 14.4699 8.86701 13.8924 8.86701 13.3092C8.86701 12.726 8.98187 12.1485 9.20506 11.6097C9.42824 11.0709 9.75537 10.5813 10.1678 10.1689C10.5801 9.75652 11.0697 9.42939 11.6085 9.2062C12.1474 8.98303 12.7249 8.86815 13.3081 8.86815C14.4859 8.86815 15.6155 9.33605 16.4484 10.1689C17.2813 11.0018 17.749 12.1314 17.749 13.3092C17.749 14.4871 17.2813 15.6166 16.4484 16.4495C15.6155 17.2823 14.4859 17.7502 13.3081 17.7502ZM13.3081 6.46794C11.4936 6.46794 9.75353 7.18871 8.47055 8.47171C7.18757 9.75469 6.4668 11.4948 6.4668 13.3092C6.4668 15.1236 7.18757 16.8638 8.47055 18.1467C9.75353 19.4298 11.4936 20.1504 13.3081 20.1504C15.1224 20.1504 16.8626 19.4298 18.1455 18.1467C19.4286 16.8638 20.1493 15.1236 20.1493 13.3092C20.1493 11.4948 19.4286 9.75469 18.1455 8.47171C16.8626 7.18871 15.1224 6.46794 13.3081 6.46794ZM22.1395 6.34371C22.1395 6.77261 21.9692 7.18393 21.666 7.4872C21.3627 7.79049 20.9514 7.96086 20.5224 7.96086C20.0935 7.96086 19.6822 7.79049 19.3789 7.4872C19.0757 7.18393 18.9052 6.77261 18.9052 6.34371C18.9052 5.91482 19.0757 5.50349 19.3789 5.20022C19.6822 4.89694 20.0935 4.72656 20.5224 4.72656C20.9514 4.72656 21.3627 4.89694 21.666 5.20022C21.9692 5.50349 22.1395 5.91482 22.1395 6.34371Z" fill="#F7941D"/>
</g>
</g>
<defs>
<clipPath id="clip0_486_258">
<rect width="27" height="27" fill="white"/>
</clipPath>
</defs>
</svg>
