<svg width="44" height="64" viewBox="0 0 44 64" fill="none" xmlns="http://www.w3.org/2000/svg">
<g clip-path="url(#clip0_483_233)">
<mask id="mask0_483_233" style="mask-type:luminance" maskUnits="userSpaceOnUse" x="0" y="0" width="44" height="64">
<path d="M43.7925 0.333984H0.291992V63.1681H43.7925V0.333984Z" fill="white"/>
</mask>
<g mask="url(#mask0_483_233)">
<path d="M0.29979 24.0585C0.29979 23.3125 0.259173 22.3135 0.29979 21.3278C0.502874 16.6788 1.88384 12.4428 4.78117 8.71298C6.86616 6.02219 9.42501 3.90418 12.5254 2.42558C14.5021 1.49313 16.5465 0.787125 18.7533 0.587313C20.2426 0.454105 21.759 0.254294 23.2482 0.334218C27.6078 0.600634 31.6153 1.91939 35.1219 4.57022C37.9244 6.68823 40.1448 9.24581 41.6747 12.3762C42.6089 14.2944 43.3264 16.3058 43.516 18.4371C43.6649 20.0889 43.8545 21.754 43.7597 23.4058C43.6514 25.2441 43.4212 27.1223 42.9338 28.8939C42.1486 31.7313 41.2685 34.5686 40.1583 37.2994C38.493 41.4155 36.3674 45.3185 33.8763 49.0083C32.2245 51.4593 30.5051 53.8837 28.7044 56.2415C27.3911 57.9465 25.8883 59.5051 24.4667 61.1169C23.9929 61.6497 23.5055 62.1825 23.0045 62.6887C22.3817 63.3148 21.5288 63.3281 20.9466 62.6754C19.2407 60.7705 17.4942 58.8923 15.9101 56.8942C14.0418 54.5364 12.214 52.1387 10.5758 49.6211C8.78868 46.8637 7.13694 43.9997 5.63412 41.0825C3.65744 37.2461 2.12754 33.2232 1.16628 29.0005C0.814269 27.4553 0.597646 25.8701 0.286251 24.0452L0.29979 24.0585ZM41.2685 21.8073C41.2008 21.0347 41.1331 20.2621 41.0654 19.5028C40.903 17.3582 40.2666 15.3467 39.3054 13.4285C38.0056 10.8043 36.1779 8.61974 33.8357 6.80811C30.8842 4.53026 27.5265 3.25147 23.8439 2.93177C21.9756 2.77192 20.0395 2.86516 18.1982 3.19818C14.624 3.86422 11.4829 5.50268 8.8293 7.98034C6.74431 9.93849 5.18734 12.2696 4.14484 14.9071C3.37312 16.852 2.9128 18.9034 2.88572 21.0081C2.88572 21.9538 2.92634 22.9129 3.02111 23.8587C3.17004 25.2441 3.27835 26.6561 3.58974 28.0148C4.42916 31.6247 5.67474 35.1147 7.24525 38.4849C8.72099 41.6419 10.3727 44.7057 12.3223 47.5963C14.1366 50.2871 16.1132 52.8847 18.0899 55.4689C19.173 56.8942 20.4051 58.213 21.5559 59.585C21.8537 59.9447 22.138 60.0512 22.4765 59.6116C22.7338 59.2786 23.0316 58.9722 23.3024 58.6525C24.5615 57.1873 25.8883 55.7886 27.0662 54.2567C29.4761 51.0997 31.7507 47.8627 33.7274 44.4126C36.1373 40.2166 38.2358 35.9007 39.6439 31.2784C40.5916 28.2013 41.2008 25.0576 41.255 21.8073H41.2685Z" fill="#5C2D91"/>
<path d="M22.0093 10.3903C28.3184 10.2837 33.8288 15.4389 33.5851 22.0859C33.3685 28.0936 28.3997 33.0622 21.9416 33.0223C15.6867 32.9823 10.5013 28.1069 10.5825 21.4199C10.6637 15.5321 15.4159 10.377 22.0093 10.3903ZM22.0093 12.9346C16.9728 12.7614 13.2903 16.9974 13.1413 21.2734C12.9653 26.5883 17.2301 30.3848 21.7927 30.5047C26.6802 30.6245 31.4053 26.6416 30.9992 20.9537C30.7013 16.8642 27.1135 12.8014 22.0093 12.9479V12.9346Z" fill="#F7941D"/>
</g>
</g>
<defs>
<clipPath id="clip0_483_233">
<rect width="44" height="64" fill="white"/>
</clipPath>
</defs>
</svg>
