<svg width="27" height="27" viewBox="0 0 27 27" fill="none" xmlns="http://www.w3.org/2000/svg">
<g clip-path="url(#clip0_486_266)">
<mask id="mask0_486_266" style="mask-type:luminance" maskUnits="userSpaceOnUse" x="0" y="0" width="27" height="27">
<path d="M26.6197 0H0V26.6197H26.6197V0Z" fill="white"/>
</mask>
<g mask="url(#mask0_486_266)">
<path d="M26.6197 1.95733V24.6624C26.6197 25.1815 26.4136 25.6793 26.0464 26.0464C25.6793 26.4136 25.1815 26.6197 24.6624 26.6197H1.95733C1.43822 26.6197 0.940361 26.4136 0.57329 26.0464C0.206219 25.6793 0 25.1815 0 24.6624V1.95733C0 1.43822 0.206219 0.940361 0.57329 0.57329C0.940361 0.206219 1.43822 0 1.95733 0H24.6624C25.1815 0 25.6793 0.206219 26.0464 0.57329C26.4136 0.940361 26.6197 1.43822 26.6197 1.95733ZM7.82933 10.1781H3.91467V22.705H7.82933V10.1781ZM8.18164 5.872C8.18371 5.57588 8.12743 5.28227 8.01601 5.00791C7.90461 4.73355 7.74023 4.48381 7.53232 4.27298C7.32439 4.06214 7.07696 3.89432 6.80416 3.77911C6.53138 3.66389 6.23857 3.60354 5.94247 3.60149H5.872C5.26982 3.60149 4.69232 3.84071 4.2665 4.2665C3.84071 4.69232 3.60149 5.26982 3.60149 5.872C3.60149 6.47417 3.84071 7.05168 4.2665 7.47749C4.69232 7.90329 5.26982 8.1425 5.872 8.1425C6.16813 8.14979 6.46279 8.09865 6.73917 7.99202C7.01552 7.88538 7.26817 7.72534 7.48266 7.52103C7.69715 7.31671 7.86928 7.07215 7.98921 6.80129C8.10915 6.53044 8.17455 6.2386 8.18164 5.94247V5.872ZM22.705 15.095C22.705 11.329 20.3092 9.86496 17.9291 9.86496C17.1499 9.82593 16.3739 9.99192 15.6789 10.3463C14.9836 10.7008 14.3937 11.2313 13.9675 11.8849H13.8579V10.1781H10.1781V22.705H14.0928V16.0422C14.0362 15.3599 14.2511 14.6828 14.6909 14.1579C15.1308 13.6331 15.7599 13.3031 16.4415 13.2394H16.5903C17.8352 13.2394 18.7591 14.0223 18.7591 15.9953V22.705H22.6738L22.705 15.095Z" fill="#F7941D"/>
</g>
</g>
<defs>
<clipPath id="clip0_486_266">
<rect width="27" height="27" fill="white"/>
</clipPath>
</defs>
</svg>
