<svg width="80" height="80" viewBox="0 0 80 80" fill="none" xmlns="http://www.w3.org/2000/svg">
<g clip-path="url(#clip0_483_198)">
<mask id="mask0_483_198" style="mask-type:luminance" maskUnits="userSpaceOnUse" x="0" y="0" width="80" height="80">
<path d="M80 0H0V80H80V0Z" fill="white"/>
</mask>
<g mask="url(#mask0_483_198)">
<path d="M36.7297 80.0004C36.0965 79.8947 35.4633 79.7589 34.815 79.6835C31.1663 79.261 27.6684 78.2348 24.2912 76.8316C20.9439 75.4435 17.8832 73.5424 15.0336 71.3242C13.8727 70.419 12.8323 69.3778 11.7618 68.3669C11.0833 67.7332 11.0532 66.9638 11.596 66.4205C12.1538 65.8622 12.8926 65.9075 13.5409 66.5865C15.9382 69.076 18.6974 71.0828 21.6827 72.7727C24.3665 74.2968 27.216 75.5189 30.2315 76.213C32.2669 76.6808 34.3476 77.0581 36.4284 77.2995C38.1168 77.4956 39.8507 77.5861 41.5394 77.4503C43.8914 77.2692 46.2284 76.9223 48.5503 76.4695C51.8221 75.8207 54.943 74.5987 57.8078 72.9238C59.9789 71.6564 62.0747 70.2076 64.0347 68.6384C67.3518 65.9979 70.0204 62.7691 72.1765 59.1327C74.2572 55.6171 75.7498 51.875 76.5639 47.8464C76.9862 45.7339 77.2725 43.6367 77.3632 41.4789C77.4686 38.597 77.2575 35.7754 76.745 32.9388C76.0815 29.2571 74.8601 25.7718 73.1263 22.4824C71.8749 20.1135 70.3823 17.9105 68.6635 15.8584C65.9193 12.5691 62.7079 9.83809 59.0291 7.66531C55.5462 5.61326 51.8373 4.13457 47.8417 3.34997C45.761 2.92749 43.6805 2.58044 41.5544 2.58044C39.9413 2.58044 38.313 2.47481 36.7147 2.61062C33.1716 2.91239 29.7491 3.74228 26.447 5.07006C23.7483 6.15646 21.1851 7.48424 18.8029 9.1591C16.0739 11.0603 13.6163 13.2632 11.4151 15.7679C9.00269 18.5141 7.0728 21.5318 5.53491 24.8362C4.32873 27.4617 3.40902 30.1776 2.98686 33.0445C2.73055 34.8399 2.62499 36.6656 2.50439 38.4762C2.45915 39.0799 2.21792 39.5175 1.72036 39.8042C0.906191 40.2869 -0.0436764 39.6985 0.00155554 38.6876C0.0920192 36.7412 0.182483 34.7795 0.484029 32.8634C0.800652 30.932 1.28312 29.0156 1.88621 27.1448C3.18286 23.1161 5.12783 19.3892 7.82667 16.13C9.54548 14.0629 11.3095 12.0108 13.2846 10.2153C16.481 7.3032 20.1448 5.03991 24.1403 3.30471C26.9295 2.09761 29.8092 1.22247 32.7644 0.588747C34.3777 0.241707 36.0664 0.166264 37.7098 0.105909C39.6398 0.0304661 41.5847 -0.0751543 43.4844 0.136087C45.8667 0.407683 48.2487 0.860342 50.5707 1.4488C55.5011 2.68606 59.9639 4.96446 64.0046 8.01237C66.824 10.1399 69.3268 12.6144 71.4979 15.436C73.2167 17.6842 74.7246 20.0531 75.9457 22.6031C77.6044 26.0583 78.7954 29.6646 79.3382 33.4668C79.489 34.5533 79.6548 35.6246 79.8206 36.6959C79.8206 36.7562 79.911 36.8016 79.9564 36.8467V43.2595C79.8056 43.9536 79.6398 44.6476 79.489 45.3567C79.0366 47.4692 78.6899 49.6268 78.1319 51.709C77.2725 54.8627 75.9607 57.8653 74.1665 60.5962C72.7343 62.7841 71.1813 64.9267 69.4926 66.9184C68.2112 68.4273 66.7035 69.7701 65.1353 70.9773C63.0698 72.5465 60.8987 73.995 58.6521 75.3078C56.1493 76.7713 53.4655 77.8728 50.616 78.5065C48.7011 78.9291 46.7712 79.3213 44.8565 79.6985C44.2233 79.8193 43.5901 79.9097 42.9566 80.0154H36.6996L36.7297 80.0004Z" fill="#5C2D91"/>
<path d="M13.7917 53.7305C13.2188 52.3423 12.676 51.0146 12.1332 49.7018C12.0428 49.4907 11.9372 49.2793 11.892 49.0681C11.7714 48.3288 12.1182 47.6497 12.7213 47.514C13.4148 47.3632 13.9576 47.68 14.229 48.2987C14.9979 50.0791 15.7367 51.8747 16.5056 53.7305H18.2245C22.7326 53.7305 27.2406 53.7305 31.7337 53.7305C33.347 53.7305 35.6687 52.4177 35.9102 49.8376C36.1211 47.5593 34.9301 45.824 32.6384 45.1603C32.0353 44.9792 31.3718 44.9942 30.7235 44.9942C27.5422 44.9792 24.3759 44.9942 21.1947 44.9942H20.2599C20.6368 45.9901 20.9534 46.9256 21.3304 47.8158C21.3907 47.9666 21.6772 48.1026 21.843 48.1026C23.0341 48.0269 24.2403 47.9062 25.4314 47.8158C26.3512 47.7404 27.286 47.6951 28.2057 47.665C28.884 47.6497 29.3214 48.0572 29.3514 48.706C29.3817 49.3549 28.9444 49.9433 28.3112 50.0037C26.9541 50.1244 25.6123 50.2148 24.2554 50.3205C23.0793 50.4109 21.9033 50.5166 20.7424 50.6223C20.0488 50.6827 19.6116 50.3506 19.3703 49.7321C18.8426 48.3741 18.2546 47.0313 17.8325 45.6429C17.6515 45.0395 17.3801 44.9792 16.8675 44.9792C11.7111 44.9792 6.55464 44.9792 1.39822 44.9792C0.418197 44.9792 -0.109506 44.4509 -0.00396571 43.5758C0.0714205 42.9271 0.433276 42.5498 1.0816 42.4895C1.33791 42.4594 1.6093 42.4895 1.86562 42.4895C11.5302 42.4895 21.1947 42.4895 30.844 42.4895C33.1058 42.4895 35.1713 43.0328 36.8147 44.8735C38.1868 42.1576 40.2675 40.377 43.2978 40.0151C45.6047 39.7283 47.7609 40.362 49.555 41.8408C52.4649 44.2398 53.9727 49.2643 50.2486 53.7004C50.8969 53.8211 51.515 53.8815 52.1032 54.0626C54.0782 54.6812 55.1788 56.2201 55.4654 58.2572C55.9327 61.5768 52.7967 63.7947 50.3844 63.7947C34.1158 63.7343 17.8325 63.7644 1.56407 63.7644C0.493584 63.7644 -0.00396571 63.3721 -0.019043 62.5273C-0.019043 61.7879 0.418197 61.32 1.15698 61.2749C1.4133 61.2597 1.68469 61.2749 1.941 61.2749C18.0586 61.2749 34.1761 61.2749 50.2937 61.2749C51.7866 61.2749 52.6307 60.626 52.9776 59.1474C53.2942 57.8197 52.4047 56.7784 51.3793 56.4466C50.9272 56.2955 50.4295 56.2805 49.9471 56.2805C33.8295 56.2805 17.7118 56.2805 1.59422 56.2805C0.56897 56.2805 0.101575 55.9637 -0.00396571 55.2243C-0.109506 54.4245 0.463428 53.7608 1.36807 53.7758C5.19769 53.8061 9.02732 53.7758 12.8569 53.7758H13.7767L13.7917 53.7305ZM38.7446 48.0723C38.5485 51.09 41.3529 54.0323 44.6249 53.7305C47.5647 53.4589 49.9471 51.4824 49.9471 47.9969C49.9471 45.1149 48.0474 42.6403 44.3233 42.5045C41.2023 42.3991 38.6843 44.9641 38.7597 48.0723H38.7446Z" fill="#F7941D"/>
<path d="M71.7813 39.9549C71.8264 45.6887 70.3188 50.9997 67.5144 55.9641C65.7804 59.0422 63.4737 61.6674 60.8652 64.0063C58.9052 65.7716 56.689 67.2201 54.3367 68.4121C51.4722 69.8456 48.4718 70.8414 45.2904 71.4148C42.7576 71.8674 40.2095 71.9731 37.6764 71.822C34.103 71.6259 30.6655 70.7357 27.3787 69.2873C26.8509 69.0608 26.3232 68.8196 25.8107 68.5479C24.9964 68.1103 24.7552 67.3408 25.1775 66.6317C25.4638 66.1488 26.3384 66.0131 27.047 66.36C29.007 67.3258 31.0575 68.0349 33.1835 68.5782C36.0783 69.3326 39.0335 69.4984 41.9736 69.3023C45.9086 69.0308 49.6781 67.9745 53.191 66.1488C55.4223 64.9869 57.473 63.5687 59.3726 61.9088C63.2928 58.4989 66.0368 54.2892 67.6953 49.4155C68.3888 47.4087 68.7508 45.2511 69.007 43.1386C69.2482 41.2223 69.3387 39.2458 69.1578 37.3294C68.9617 35.2322 68.5246 33.1197 67.9064 31.0979C66.7001 27.1297 64.6497 23.5988 61.9057 20.4604C59.4029 17.6087 56.4628 15.3906 53.1307 13.6856C50.4621 12.3276 47.6274 11.3167 44.6119 10.9998C42.863 10.8037 41.0989 10.5321 39.335 10.5623C35.4298 10.6226 31.6606 11.4525 28.0722 13.0368C24.5139 14.5909 21.3779 16.7788 18.7092 19.5853C15.6486 22.7991 13.4171 26.526 12.0451 30.7508C11.2309 33.2555 10.6882 35.8056 10.6278 38.446C10.6128 39.2005 10.07 39.8795 9.45181 39.9399C8.89395 40.0002 8.44163 39.7738 8.24563 39.2005C8.17024 38.9893 8.125 38.7629 8.125 38.5367C8.17024 34.8097 9.05979 31.279 10.4318 27.8388C11.5475 25.0473 13.0402 22.4521 14.9098 20.1134C17.5634 16.809 20.6693 13.9421 24.5139 12.0409C26.7001 10.9546 28.977 10.004 31.2987 9.21935C32.7915 8.70636 34.4199 8.58563 36.0029 8.3593C37.1639 8.19334 38.3549 8.02735 39.5159 8.05753C42.9988 8.16316 46.4514 8.51019 49.7985 9.62674C53.4773 10.8489 56.8698 12.5992 59.855 15.0436C64.1823 18.6045 67.5295 22.9349 69.5648 28.246C70.5147 30.7207 71.1479 33.2405 71.5401 35.8356C71.736 37.1786 71.7059 38.5668 71.7661 39.9399L71.7813 39.9549Z" fill="#5C2D91"/>
</g>
</g>
<defs>
<clipPath id="clip0_483_198">
<rect width="80" height="80" fill="white"/>
</clipPath>
</defs>
</svg>
