<svg width="32" height="32" viewBox="0 0 32 32" fill="none" xmlns="http://www.w3.org/2000/svg">
<mask id="mask0_70_949" style="mask-type:luminance" maskUnits="userSpaceOnUse" x="0" y="0" width="32" height="32">
<path d="M0 0H32V32H0V0Z" fill="white"/>
</mask>
<g mask="url(#mask0_70_949)">
<path d="M16 8.5C16 12.6421 12.6421 16 8.5 16C4.35787 16 0.9375 12.6421 0.9375 8.5C0.9375 4.35787 4.35787 0.9375 8.5 0.9375C12.6421 0.9375 16 4.35787 16 8.5Z" stroke="#F7941D" stroke-width="2" stroke-miterlimit="10" stroke-linecap="round" stroke-linejoin="round"/>
<path d="M31.0625 23.5C31.0625 27.6421 27.6421 31.0625 23.5 31.0625C19.3579 31.0625 16 27.6421 16 23.5C16 19.3579 19.3579 16 23.5 16C27.6421 16 31.0625 19.3579 31.0625 23.5Z" stroke="#F7941D" stroke-width="2" stroke-miterlimit="10" stroke-linecap="round" stroke-linejoin="round"/>
<path d="M8.5 16V27.25" stroke="#F7941D" stroke-width="2" stroke-miterlimit="10" stroke-linecap="round" stroke-linejoin="round"/>
<path d="M4.75 23.5H12.25" stroke="#F7941D" stroke-width="2" stroke-miterlimit="10" stroke-linecap="round" stroke-linejoin="round"/>
<path d="M23.5 5.00006V16" stroke="#F7941D" stroke-width="2" stroke-miterlimit="10" stroke-linecap="round" stroke-linejoin="round"/>
<path d="M19.75 8.5L23.5 4.75L27.25 8.5" stroke="#F7941D" stroke-width="2" stroke-miterlimit="10" stroke-linecap="round" stroke-linejoin="round"/>
</g>
</svg>
