<svg width="40" height="40" viewBox="0 0 40 40" fill="none" xmlns="http://www.w3.org/2000/svg">
<path d="M36.6166 30.55C36.6166 31.15 36.4833 31.7667 36.1999 32.3667C35.9166 32.9667 35.5499 33.5333 35.0666 34.0667C34.2499 34.9667 33.3499 35.6167 32.3333 36.0333C31.3333 36.45 30.2499 36.6667 29.0833 36.6667C27.3833 36.6667 25.5666 36.2667 23.6499 35.45C21.7333 34.6333 19.8166 33.5333 17.9166 32.15C15.9999 30.75 14.1833 29.2 12.4499 27.4833C10.7333 25.75 9.18325 23.9333 7.79992 22.0333C6.43325 20.1333 5.33325 18.2333 4.53325 16.35C3.73325 14.45 3.33325 12.6333 3.33325 10.9C3.33325 9.76667 3.53325 8.68333 3.93325 7.68333C4.33325 6.66667 4.96659 5.73333 5.84992 4.9C6.91659 3.85 8.08325 3.33333 9.31659 3.33333C9.78325 3.33333 10.2499 3.43333 10.6666 3.63333C11.0999 3.83333 11.4833 4.13333 11.7833 4.56667L15.6499 10.0167C15.9499 10.4333 16.1666 10.8167 16.3166 11.1833C16.4666 11.5333 16.5499 11.8833 16.5499 12.2C16.5499 12.6 16.4333 13 16.1999 13.3833C15.9833 13.7667 15.6666 14.1667 15.2666 14.5667L13.9999 15.8833C13.8166 16.0667 13.7333 16.2833 13.7333 16.55C13.7333 16.6833 13.7499 16.8 13.7833 16.9333C13.8333 17.0667 13.8833 17.1667 13.9166 17.2667C14.2166 17.8167 14.7333 18.5333 15.4666 19.4C16.2166 20.2667 17.0166 21.15 17.8833 22.0333C18.7833 22.9167 19.6499 23.7333 20.5333 24.4833C21.3999 25.2167 22.1166 25.7167 22.6833 26.0167C22.7666 26.05 22.8666 26.1 22.9833 26.15C23.1166 26.2 23.2499 26.2167 23.3999 26.2167C23.6833 26.2167 23.8999 26.1167 24.0833 25.9333L25.3499 24.6833C25.7666 24.2667 26.1666 23.95 26.5499 23.75C26.9333 23.5167 27.3166 23.4 27.7333 23.4C28.0499 23.4 28.3833 23.4667 28.7499 23.6167C29.1166 23.7667 29.4999 23.9833 29.9166 24.2667L35.4333 28.1833C35.8666 28.4833 36.1666 28.8333 36.3499 29.25C36.5166 29.6667 36.6166 30.0833 36.6166 30.55Z" stroke="#F7941D" stroke-width="3" stroke-miterlimit="10"/>
</svg>
