<svg width="50" height="50" viewBox="0 0 50 50" fill="none" xmlns="http://www.w3.org/2000/svg">
<path d="M12.3795 33.3434L10.9335 34.7895C10.9333 34.7897 10.9337 34.7893 10.9335 34.7895C10.9333 34.7897 10.9328 34.7903 10.9326 34.7905L9.48605 36.2372C8.35003 37.3732 8.35003 39.2226 9.48605 40.3593C10.0365 40.9102 10.7685 41.2131 11.5471 41.2131C12.3257 41.2131 13.0577 40.9102 13.6082 40.3593L16.5017 37.4655C17.0521 36.9154 17.3554 36.183 17.3554 35.4048C17.3554 34.6259 17.0521 33.8934 16.5017 33.3434C15.4007 32.2417 13.4804 32.2417 12.3795 33.3434ZM10.5912 39.2546C10.064 38.7274 10.064 37.8691 10.5908 37.3419L11.4854 36.4471L13.398 38.36L12.5035 39.2546C11.9923 39.7658 11.1016 39.7658 10.5912 39.2546ZM15.3969 36.3608L14.5027 37.2552L12.5901 35.3424L13.4842 34.4481C13.7398 34.1925 14.0793 34.0521 14.4406 34.0521C14.8018 34.0521 15.1413 34.1925 15.3969 34.4481C15.6521 34.7037 15.7929 35.0432 15.7929 35.4048C15.7929 35.7657 15.6521 36.1052 15.3969 36.3608Z" fill="#F7941D"/>
<path d="M44.7613 22.0167L43.3104 21.0008L43.7569 20.363C44.2376 19.676 44.4222 18.8432 44.2769 18.0173C44.1311 17.1918 43.6726 16.472 42.986 15.9914C42.4553 15.6202 41.8336 15.4237 41.1877 15.4237C40.2323 15.4237 39.3354 15.863 38.7421 16.6012V9.18594C38.7421 7.89352 37.6908 6.84219 36.3984 6.84219H30.1171L29.7894 5.4834C29.7047 5.13245 29.3908 4.88525 29.0299 4.88525H19.8945C19.5336 4.88525 19.2196 5.13245 19.135 5.4834L18.8072 6.84219H12.5233C11.2309 6.84219 10.1796 7.89352 10.1796 9.18594V22.9757H7.38226C6.95082 22.9757 6.60101 23.3255 6.60101 23.7569V27.342C6.60101 27.7738 6.95082 28.1232 7.38226 28.1232H7.88695V29.0342C7.88695 29.4286 7.67332 29.7956 7.33038 29.9909L6.25235 30.6036C5.42151 31.0766 4.90576 31.9631 4.90576 32.9183V42.4627C4.90576 43.9252 6.09557 45.1147 7.55774 45.1147H18.43C19.528 45.1147 20.4721 44.4438 20.8744 43.4904H36.3984C37.6908 43.4904 38.7421 42.439 38.7421 41.1466V27.5252L42.4141 22.2808L43.2252 22.8487L40.2867 27.0452C40.0395 27.3985 40.1253 27.8852 40.4786 28.1332C40.6151 28.2285 40.7715 28.2743 40.926 28.2743C41.1725 28.2743 41.4147 28.1583 41.5669 27.9409L44.9532 23.105C45.0718 22.9353 45.1184 22.7251 45.0825 22.521C45.0467 22.3169 44.9311 22.1357 44.7613 22.0167ZM42.0899 17.2716C42.4347 17.513 42.6648 17.8743 42.738 18.289C42.8113 18.7036 42.7186 19.1217 42.4767 19.4666L42.0301 20.1045L39.4477 18.2964L39.8942 17.6588C40.3741 16.9733 41.3987 16.7871 42.0899 17.2716ZM36.3984 8.40469C36.8291 8.40469 37.1796 8.75526 37.1796 9.18594V18.811L35.8204 20.7524V10.5375C35.8204 10.106 35.4706 9.75624 35.0392 9.75624H30.82L30.494 8.40469H36.3984ZM29.4747 34.2779C29.5018 34.4976 29.6208 34.6952 29.8016 34.8219C29.9344 34.9142 30.0908 34.963 30.2498 34.963C30.3082 34.963 30.3666 34.9561 30.4246 34.9432L33.8532 34.1566C34.0136 34.1196 34.1502 34.0252 34.2579 33.9026V39.0066H21.082V33.0488C21.082 32.0119 20.5224 31.0506 19.6221 30.5395L18.7703 30.055C18.3575 29.82 18.1008 29.379 18.1008 28.9037V28.1232H18.6055C19.0369 28.1232 19.3867 27.7738 19.3867 27.342V23.7569C19.3867 23.3255 19.0369 22.9757 18.6055 22.9757H14.6641V11.3187H34.2579V22.9842L29.1756 30.2435C29.0646 30.4014 29.0166 30.5959 29.0406 30.7874L29.4747 34.2779ZM28.4146 6.44775L29.1451 9.47586H19.7793L20.5098 6.44775H28.4146ZM11.7421 9.18594C11.7421 8.75526 12.0927 8.40469 12.5233 8.40469H18.4302L18.1042 9.75624H13.8829C13.4514 9.75624 13.1016 10.106 13.1016 10.5375V22.9757H11.7421V9.18594ZM8.16351 24.5382H17.8242V26.5607H8.16351V24.5382ZM18.43 43.5522H7.55774C6.95692 43.5522 6.46826 43.0631 6.46826 42.4627V32.9183C6.46826 32.5239 6.68188 32.1569 7.02483 31.9616L8.10286 31.349C8.9337 30.8759 9.44945 29.9894 9.44945 29.0342V28.1232H16.5383V28.9037C16.5383 29.9406 17.0979 30.9019 17.9982 31.413L18.85 31.8975C19.2628 32.1325 19.5195 32.5735 19.5195 33.0488V39.7689C19.5193 39.7756 19.5157 39.7811 19.5157 39.7878C19.5157 39.7945 19.5193 39.8 19.5195 39.8067V42.4627C19.5195 43.0631 19.0308 43.5522 18.43 43.5522ZM37.1796 41.1466C37.1796 41.5777 36.8291 41.9279 36.3984 41.9279H21.082V40.5691H35.0392C35.4706 40.5691 35.8204 40.2197 35.8204 39.7878V31.698L37.1796 29.7568V41.1466ZM33.2108 32.7009L30.9182 33.2265L30.6283 30.8935L38.5514 19.5767L41.1338 21.3846L33.2108 32.7009Z" fill="#F7941D"/>
<path d="M18.1729 15.8931H30.7511C31.1825 15.8931 31.5323 15.5433 31.5323 15.1118C31.5323 14.6804 31.1825 14.3306 30.7511 14.3306H18.1729C17.7414 14.3306 17.3916 14.6804 17.3916 15.1118C17.3916 15.5433 17.7414 15.8931 18.1729 15.8931Z" fill="#F7941D"/>
<path d="M31.5323 19.1653C31.5323 18.7338 31.1825 18.384 30.7511 18.384H18.1729C17.7414 18.384 17.3916 18.7338 17.3916 19.1653C17.3916 19.5967 17.7414 19.9465 18.1729 19.9465H30.7511C31.1825 19.9465 31.5323 19.5967 31.5323 19.1653Z" fill="#F7941D"/>
</svg>
