<svg width="50" height="50" viewBox="0 0 50 50" fill="none" xmlns="http://www.w3.org/2000/svg">
<g clip-path="url(#clip0_74_1220)">
<path d="M19.652 35.6303L18.7815 37.1379C18.6549 37.3572 18.4251 37.4798 18.1889 37.4798C18.0729 37.4798 17.9554 37.4503 17.8478 37.3881C17.5208 37.1993 17.4088 36.7812 17.5976 36.4543L18.468 34.9467C18.6568 34.6197 19.0749 34.5077 19.4018 34.6965C19.7286 34.8853 19.8407 35.3033 19.652 35.6303ZM18.7815 12.8621C18.5927 12.5352 18.1747 12.423 17.8478 12.6119C17.5208 12.8007 17.4088 13.2187 17.5976 13.5457L18.468 15.0533C18.5946 15.2727 18.8243 15.3952 19.0606 15.3952C19.1767 15.3952 19.2941 15.3657 19.4018 15.3035C19.7287 15.1147 19.8407 14.6967 19.652 14.3697L18.7815 12.8621ZM12.8621 18.7815L14.3697 19.652C14.4774 19.7142 14.5949 19.7437 14.7108 19.7437C14.9471 19.7437 15.1769 19.6211 15.3035 19.4018C15.4923 19.0748 15.3802 18.6567 15.0533 18.468L13.5457 17.5976C13.2187 17.4087 12.8007 17.5209 12.6119 17.8478C12.4231 18.1747 12.5352 18.5928 12.8621 18.7815ZM25 13.8055C25.3775 13.8055 25.6836 13.4994 25.6836 13.1219V11.379C25.6836 11.0015 25.3775 10.6954 25 10.6954C24.6225 10.6954 24.3164 11.0015 24.3164 11.379V13.1219C24.3164 13.4994 24.6225 13.8055 25 13.8055ZM14.3697 30.348L12.8621 31.2186C12.5351 31.4073 12.4231 31.8254 12.6119 32.1523C12.7386 32.3717 12.9683 32.4942 13.2046 32.4942C13.3206 32.4942 13.4382 32.4647 13.5457 32.4025L15.0533 31.532C15.3804 31.3433 15.4923 30.9252 15.3035 30.5982C15.1147 30.2713 14.6965 30.1594 14.3697 30.348ZM13.8054 25C13.8054 24.6225 13.4993 24.3164 13.1218 24.3164H11.379C11.0015 24.3164 10.6954 24.6225 10.6954 25C10.6954 25.3775 11.0015 25.6836 11.379 25.6836H13.1218C13.4993 25.6836 13.8054 25.3775 13.8054 25ZM36.1946 25C36.1946 25.3775 36.5007 25.6836 36.8782 25.6836H38.621C38.9985 25.6836 39.3046 25.3775 39.3046 25C39.3046 24.6225 38.9985 24.3164 38.621 24.3164H36.8782C36.5007 24.3164 36.1946 24.6225 36.1946 25ZM32.1522 12.6119C31.8253 12.4231 31.4073 12.5352 31.2185 12.8621L30.348 14.3697C30.1593 14.6967 30.2714 15.1147 30.5982 15.3035C30.706 15.3657 30.8234 15.3952 30.9394 15.3952C31.1756 15.3952 31.4054 15.2727 31.532 15.0533L32.4024 13.5457C32.5912 13.2187 32.4792 12.8006 32.1522 12.6119ZM34.6965 19.4018C34.8231 19.6211 35.0528 19.7437 35.2892 19.7437C35.4052 19.7437 35.5228 19.7141 35.6303 19.652L37.1379 18.7814C37.4649 18.5927 37.5769 18.1746 37.3881 17.8477C37.1993 17.5207 36.7811 17.4086 36.4543 17.5975L34.9467 18.468C34.6197 18.6567 34.5077 19.0748 34.6965 19.4018ZM37.1379 31.2186L35.6303 30.348C35.3032 30.1593 34.8853 30.2713 34.6965 30.5982C34.5077 30.9252 34.6197 31.3433 34.9467 31.532L36.4543 32.4025C36.562 32.4647 36.6795 32.4942 36.7954 32.4942C37.0316 32.4942 37.2614 32.3717 37.3881 32.1523C37.5769 31.8254 37.4649 31.4073 37.1379 31.2186ZM31.5321 34.9467C31.3433 34.6197 30.9254 34.5075 30.5983 34.6965C30.2714 34.8853 30.1594 35.3033 30.3481 35.6303L31.2186 37.1379C31.3452 37.3572 31.5749 37.4798 31.8112 37.4798C31.9272 37.4798 32.0447 37.4503 32.1523 37.3881C32.4793 37.1993 32.5913 36.7812 32.4025 36.4543L31.5321 34.9467ZM25 36.1945C24.6225 36.1945 24.3164 36.5006 24.3164 36.8781V38.621C24.3164 38.9985 24.6225 39.3046 25 39.3046C25.3775 39.3046 25.6836 38.9985 25.6836 38.621V36.8781C25.6836 36.5006 25.3775 36.1945 25 36.1945ZM44.5911 10.9251C44.3704 10.6187 43.9434 10.5489 43.6369 10.7695C43.3305 10.99 43.2608 11.4172 43.4813 11.7237C46.2765 15.6076 47.7539 20.1985 47.7539 25C47.7539 37.5466 37.5466 47.7539 25 47.7539C12.4534 47.7539 2.24609 37.5466 2.24609 25C2.24609 12.4534 12.4534 2.24609 25 2.24609C30.7556 2.24609 36.1723 4.36201 40.3785 8.22861H35.9219C35.5443 8.22861 35.2383 8.53467 35.2383 8.91221C35.2383 9.28975 35.5443 9.5958 35.9219 9.5958H42.0441C42.4217 9.5958 42.7277 9.28975 42.7277 8.91221V2.78994C42.7277 2.4124 42.4217 2.10635 42.0441 2.10635C41.6666 2.10635 41.3605 2.4124 41.3605 2.78994V7.27451C36.8935 3.14131 31.1279 0.878906 25 0.878906C18.557 0.878906 12.4997 3.38789 7.94385 7.94385C3.38789 12.4997 0.878906 18.557 0.878906 25C0.878906 31.443 3.38789 37.5003 7.94385 42.0562C12.4997 46.6121 18.557 49.1211 25 49.1211C31.443 49.1211 37.5003 46.6121 42.0562 42.0562C46.6121 37.5003 49.1211 31.443 49.1211 25C49.1211 19.9101 47.5547 15.0431 44.5911 10.9251ZM42.2564 25C42.2564 34.5152 34.5152 42.2564 25 42.2564C15.4848 42.2564 7.74355 34.5152 7.74355 25C7.74355 15.4848 15.4847 7.74365 25 7.74365C34.5153 7.74365 42.2564 15.4848 42.2564 25ZM40.8893 25C40.8893 16.2387 33.7614 9.11084 25 9.11084C16.2386 9.11084 9.11074 16.2387 9.11074 25C9.11074 33.7613 16.2386 40.8893 25 40.8893C33.7614 40.8893 40.8893 33.7613 40.8893 25ZM25 27.1712C23.8027 27.1712 22.8288 26.1972 22.8288 25C22.8288 24.0416 23.4532 23.2268 24.3164 22.9396V15.8562C24.3164 15.4786 24.6225 15.1726 25 15.1726C25.3775 15.1726 25.6836 15.4786 25.6836 15.8562V22.9396C26.5468 23.2268 27.1712 24.0416 27.1712 25C27.1712 25.15 27.1559 25.2965 27.1268 25.438L31.6831 28.067C32.0102 28.2557 32.1223 28.6737 31.9335 29.0008C31.8069 29.2201 31.5771 29.3428 31.3408 29.3428C31.2249 29.3428 31.1074 29.3133 30.9999 29.2512L26.4421 26.6213C26.0583 26.963 25.5531 27.1712 25 27.1712ZM25 25.804C25.4434 25.804 25.804 25.4434 25.804 25C25.804 24.5566 25.4434 24.1959 25 24.1959C24.5566 24.1959 24.196 24.5566 24.196 25C24.196 25.4434 24.5566 25.804 25 25.804Z" fill="#F7941D"/>
</g>
<defs>
<clipPath id="clip0_74_1220">
<rect width="50" height="50" fill="white"/>
</clipPath>
</defs>
</svg>
