<svg width="50" height="50" viewBox="0 0 50 50" fill="none" xmlns="http://www.w3.org/2000/svg">
<path d="M9.59375 8.44531V40.9375C9.59375 45.1719 11.8672 46.8203 14.6719 46.8203C17.4766 46.8203 19.75 45.1719 19.75 40.9375V8.44531H9.59375Z" stroke="#F7941D" stroke-width="2" stroke-linecap="round" stroke-linejoin="round"/>
<path d="M7.04688 2.86719H22.2969V8.4375H7.04688V2.86719Z" stroke="#F7941D" stroke-width="2" stroke-linecap="round" stroke-linejoin="round"/>
<path d="M10.5938 2.86719V5.17187" stroke="#F7941D" stroke-width="2" stroke-linecap="round" stroke-linejoin="round"/>
<path d="M14.6719 2.86719V5.17187" stroke="#F7941D" stroke-width="2" stroke-linecap="round" stroke-linejoin="round"/>
<path d="M18.8438 2.86719V5.17187" stroke="#F7941D" stroke-width="2" stroke-linecap="round" stroke-linejoin="round"/>
<path d="M9.59375 19H16.6406V31.9922H9.59375V19Z" stroke="#F7941D" stroke-width="2" stroke-linecap="round" stroke-linejoin="round"/>
<path d="M9.59375 23.125H13.2734" stroke="#F7941D" stroke-width="2" stroke-linecap="round" stroke-linejoin="round"/>
<path d="M9.59375 27.6328H13.2734" stroke="#F7941D" stroke-width="2" stroke-linecap="round" stroke-linejoin="round"/>
<path d="M25.8359 29.1719C25.8359 33.8126 28.9063 37.5704 33.5391 37.5704C38.1719 37.5704 41.25 33.8126 41.25 29.1719C41.25 25.1251 35.375 19.8594 33.8828 13.6954C33.863 13.6204 33.8189 13.5541 33.7574 13.5068C33.6959 13.4595 33.6205 13.4338 33.543 13.4338C33.4654 13.4338 33.39 13.4595 33.3286 13.5068C33.2671 13.5541 33.223 13.6204 33.2031 13.6954C31.7109 19.8594 25.8359 25.1251 25.8359 29.1719Z" stroke="#F7941D" stroke-width="2" stroke-linecap="round" stroke-linejoin="round"/>
</svg>
