<svg width="50" height="50" viewBox="0 0 50 50" fill="none" xmlns="http://www.w3.org/2000/svg">
<path d="M24.7863 4.19707C24.7863 4.6666 24.4058 5.04717 23.9362 5.04717C23.4667 5.04717 23.0861 4.6666 23.0861 4.19707C23.0861 3.72754 23.4667 3.34697 23.9362 3.34697C24.4058 3.34697 24.7863 3.72754 24.7863 4.19707ZM21.331 14.1258V15.1174C21.331 15.75 20.9157 16.287 20.3438 16.4715V37.5491C20.3438 39.8193 18.4968 41.6663 16.2266 41.6663C13.9563 41.6663 12.1093 39.8194 12.1093 37.5492V16.4716C11.5373 16.287 11.1222 15.7501 11.1222 15.1175V14.1259C11.1222 13.3413 11.7604 12.7029 12.545 12.7029H19.908C20.6927 12.7028 21.331 13.3412 21.331 14.1258ZM12.6847 14.9779H19.7685V14.2653H12.6847V14.9779ZM18.7812 37.5492V16.5404H13.6718V18.2875H15.4785C15.91 18.2875 16.2598 18.6373 16.2598 19.0688C16.2598 19.5002 15.91 19.85 15.4785 19.85H13.6718V21.1948H15.4785C15.91 21.1948 16.2598 21.5446 16.2598 21.9761C16.2598 22.4075 15.91 22.7573 15.4785 22.7573H13.6718V24.1021H15.4785C15.91 24.1021 16.2598 24.452 16.2598 24.8834C16.2598 25.3148 15.91 25.6646 15.4785 25.6646H13.6718V27.0095H15.4785C15.91 27.0095 16.2598 27.3593 16.2598 27.7907C16.2598 28.2222 15.91 28.572 15.4785 28.572H13.6718V29.9168H15.4785C15.91 29.9168 16.2598 30.2666 16.2598 30.698C16.2598 31.1295 15.91 31.4793 15.4785 31.4793H13.6718V32.8241H15.4785C15.91 32.8241 16.2598 33.1739 16.2598 33.6054C16.2598 34.0368 15.91 34.3866 15.4785 34.3866H13.6718V35.7314H15.4785C15.91 35.7314 16.2598 36.0813 16.2598 36.5127C16.2598 36.9441 15.91 37.2939 15.4785 37.2939H13.6718V37.5491C13.6718 38.9578 14.8178 40.1038 16.2265 40.1038C17.6352 40.1038 18.7812 38.9579 18.7812 37.5492ZM23.1318 17.6433H35.9691C36.4006 17.6433 36.7504 17.2935 36.7504 16.862C36.7504 16.4306 36.4006 16.0808 35.9691 16.0808H23.1318C22.7004 16.0808 22.3506 16.4306 22.3506 16.862C22.3506 17.2935 22.7004 17.6433 23.1318 17.6433ZM23.1318 20.5506H35.9691C36.4006 20.5506 36.7504 20.2008 36.7504 19.7693C36.7504 19.3379 36.4006 18.9881 35.9691 18.9881H23.1318C22.7004 18.9881 22.3506 19.3379 22.3506 19.7693C22.3506 20.2008 22.7004 20.5506 23.1318 20.5506ZM23.1318 23.458H35.9691C36.4006 23.458 36.7504 23.1082 36.7504 22.6768C36.7504 22.2453 36.4006 21.8955 35.9691 21.8955H23.1318C22.7004 21.8955 22.3506 22.2453 22.3506 22.6768C22.3506 23.1082 22.7004 23.458 23.1318 23.458ZM23.1318 26.3652H35.9691C36.4006 26.3652 36.7504 26.0154 36.7504 25.584C36.7504 25.1525 36.4006 24.8027 35.9691 24.8027H23.1318C22.7004 24.8027 22.3506 25.1525 22.3506 25.584C22.3506 26.0154 22.7004 26.3652 23.1318 26.3652ZM23.1318 29.2727H35.9691C36.4006 29.2727 36.7504 28.9229 36.7504 28.4914C36.7504 28.06 36.4006 27.7102 35.9691 27.7102H23.1318C22.7004 27.7102 22.3506 28.06 22.3506 28.4914C22.3506 28.9229 22.7004 29.2727 23.1318 29.2727ZM36.7504 31.3987C36.7504 30.9673 36.4006 30.6175 35.9691 30.6175H23.1318C22.7004 30.6175 22.3506 30.9673 22.3506 31.3987C22.3506 31.8302 22.7004 32.18 23.1318 32.18H35.9691C36.4006 32.18 36.7504 31.8302 36.7504 31.3987ZM43.2918 41.3574C43.2918 45.6922 39.7652 49.2188 35.4304 49.2188C32.6404 49.2188 30.1871 47.7566 28.7915 45.5597H9.37969C7.90654 45.5597 6.70801 44.3612 6.70801 42.8881V8.10352C6.70801 6.63037 7.90654 5.43193 9.37969 5.43193H15.8767V4.02002C15.8767 3.58857 16.2265 3.23877 16.6579 3.23877H20.2472C20.8573 1.76533 22.2967 0.78125 23.9362 0.78125C25.5758 0.78125 27.0151 1.76533 27.6252 3.23877H31.2145C31.6459 3.23877 31.9957 3.58857 31.9957 4.02002V5.43193H38.4927C39.9658 5.43193 41.1644 6.63037 41.1644 8.10352V35.9876C42.4824 37.3941 43.2918 39.2825 43.2918 41.3574ZM17.4393 8.154H30.4333V4.80127H27.0604C26.6995 4.80127 26.3855 4.5541 26.3009 4.20322C26.0367 3.1084 25.0645 2.34375 23.9362 2.34375C22.808 2.34375 21.8357 3.1084 21.5717 4.20322C21.487 4.5541 21.173 4.80127 20.8122 4.80127H17.4393V8.154ZM28.0264 43.9972C27.7312 43.1716 27.569 42.2832 27.569 41.3574C27.569 37.0227 31.0956 33.4961 35.4304 33.4961C36.9622 33.4961 38.3919 33.9381 39.602 34.6988V8.10352C39.602 7.49189 39.1043 6.99443 38.4928 6.99443H31.9958V8.93525C31.9958 9.3667 31.646 9.7165 31.2146 9.7165H16.658C16.2266 9.7165 15.8768 9.3667 15.8768 8.93525V6.99443H9.37969C8.76807 6.99443 8.27051 7.49199 8.27051 8.10352V42.888C8.27051 43.4996 8.76816 43.9971 9.37969 43.9971H28.0264V43.9972ZM41.7293 41.3574C41.7293 37.8843 38.9036 35.0586 35.4304 35.0586C31.9572 35.0586 29.1315 37.8843 29.1315 41.3574C29.1315 44.8306 31.9572 47.6562 35.4304 47.6562C38.9037 47.6562 41.7293 44.8306 41.7293 41.3574ZM39.9855 40.5319L35.7979 44.7644C35.4408 45.1213 34.9717 45.2997 34.5027 45.2998C34.0337 45.2998 33.5648 45.1213 33.2077 44.7644L30.881 42.4376C30.1669 41.7234 30.1669 40.5615 30.8809 39.8476C31.595 39.1335 32.7569 39.1337 33.4709 39.8476L34.4978 40.8744L37.3881 37.9553C37.7318 37.6081 38.1903 37.4159 38.6793 37.4141H38.6865C39.1734 37.4141 39.6314 37.6029 39.9769 37.9465C40.6907 38.6562 40.6946 39.8161 39.9855 40.5319ZM38.8751 39.0543C38.8071 38.9867 38.728 38.9764 38.6862 38.9764C38.6858 38.9764 38.6855 38.9764 38.6853 38.9764C38.6441 38.9766 38.5652 38.9869 38.4984 39.0546L35.0557 42.5315C34.9095 42.6793 34.7104 42.7625 34.5024 42.7631C34.5019 42.7631 34.5012 42.7631 34.5005 42.7631C34.2934 42.7631 34.0946 42.6808 33.9481 42.5343L32.3661 40.9523C32.3137 40.8999 32.2448 40.8736 32.176 40.8736C32.107 40.8736 32.0382 40.8999 31.9857 40.9523C31.881 41.0571 31.8811 41.2277 31.9858 41.3327L34.3126 43.6594C34.4176 43.7645 34.5882 43.7643 34.6931 43.6594L38.8756 39.4322C38.9794 39.3274 38.9792 39.1579 38.8751 39.0543Z" fill="#F7941D"/>
</svg>
