<svg width="53" height="38" viewBox="0 0 53 38" fill="none" xmlns="http://www.w3.org/2000/svg">
<path d="M40.6751 14.3873C34.2272 14.3873 29.0001 19.6144 29.0001 26.0623C29.0001 32.5102 34.2272 37.7373 40.6751 37.7373C47.123 37.7373 52.3501 32.5102 52.3501 26.0623C52.3501 19.6144 47.123 14.3873 40.6751 14.3873Z" fill="#5C2D91"/>
<path d="M31.966 27.3975C31.966 27.3975 26.76 7.06312 46.8406 2.99977" stroke="#5C2D91" stroke-width="5.8" stroke-linecap="round"/>
<path d="M12.6751 14.3873C6.22715 14.3873 1.00007 19.6144 1.00007 26.0623C1.00007 32.5102 6.22715 37.7373 12.6751 37.7373C19.123 37.7373 24.3501 32.5102 24.3501 26.0623C24.3501 19.6144 19.123 14.3873 12.6751 14.3873Z" fill="#5C2D91"/>
<path d="M3.96595 27.3975C3.96595 27.3975 -1.24003 7.06312 18.8406 2.99977" stroke="#5C2D91" stroke-width="5.8" stroke-linecap="round"/>
</svg>
