<svg width="80" height="68" viewBox="0 0 80 68" fill="none" xmlns="http://www.w3.org/2000/svg">
<mask id="mask0_483_207" style="mask-type:luminance" maskUnits="userSpaceOnUse" x="0" y="0" width="79" height="68">
<path d="M78.3805 0H0V68H78.3805V0Z" fill="white"/>
</mask>
<g mask="url(#mask0_483_207)">
<path d="M67.2154 30.4007C67.2154 36.9326 67.2154 43.4648 67.1834 49.9969C67.1727 52.3964 66.6176 54.6456 65.166 56.6256C63.6076 58.7563 61.6222 60.2523 59.0176 60.7794C58.0248 60.984 57.0002 61.0916 55.9861 61.1454C54.6946 61.2099 53.3922 61.1561 52.0261 61.1561C52.0261 62.2 52.0047 63.1685 52.0261 64.137C52.0901 66.526 50.3075 68.0002 48.2367 68.0002C33.2714 67.968 18.2956 67.968 3.33034 67.9573C1.9427 67.9573 0.362923 66.5582 0.320226 65.1485C0.224158 61.9418 0.0960677 58.7242 0.224158 55.5172C0.277528 53.9784 1.80394 52.6332 3.3944 52.6011C6.05227 52.558 8.71013 52.5794 11.3573 52.5794C11.6135 52.5794 11.8697 52.5794 12.1045 52.5794C12.1899 51.7723 12.2219 51.0299 12.35 50.2981C12.6489 48.587 13.7697 47.6723 15.4242 47.5647C16.6731 47.4895 17.922 47.5647 19.1709 47.5217C19.3737 47.5217 19.7366 47.3387 19.7472 47.2204C19.822 46.3164 19.8326 45.4017 19.854 44.487C19.8647 43.9921 19.5765 43.9059 19.1495 43.9059C14.2501 43.9166 9.36127 43.9059 4.46181 43.9166C2.22023 43.9166 0.0213483 41.8505 0.0213483 39.623C-0.0106742 30.336 1.05072e-08 21.0491 0.0106742 11.7622C0.0106742 9.94361 1.63315 7.85593 3.70394 7.56539C4.33372 7.47929 4.97417 7.43625 5.61463 7.43625C19.4163 7.43625 33.2074 7.43625 47.0092 7.43625C50.2755 7.43625 52.3143 9.48088 52.3249 12.7415C52.3249 21.4043 52.3249 30.0564 52.3249 38.719C52.3249 41.0973 50.9052 43.4002 48.3114 43.8414C47.9592 43.9059 47.5963 43.9166 47.2439 43.9166C42.5793 43.9166 37.9253 43.9276 33.2607 43.9166C32.7163 43.9166 32.3428 43.9921 32.3428 44.6269C32.3428 45.5847 32.3428 46.5318 32.3428 47.5433C33.8691 47.5433 35.1928 47.5002 36.5163 47.554C37.9787 47.6185 39.1744 48.2212 39.7079 49.6954C39.9001 50.212 39.9428 50.7824 40.0068 51.342C40.0496 51.7294 40.0068 52.1168 40.0068 52.5794C42.3444 52.5794 44.6287 52.5687 46.913 52.5794C47.7563 52.5794 48.5996 52.6656 49.4429 52.7517C50.6384 52.8807 52.0367 54.4088 52.0367 55.9693C52.0367 57.0668 52.0367 58.1645 52.0367 59.3697C54.9081 59.2191 57.8222 59.8756 60.5013 58.3905C62.8176 57.1099 64.4187 55.2053 65.1126 52.6118C65.326 51.8263 65.4115 50.9868 65.4222 50.1582C65.4435 43.7015 65.4328 37.2448 65.4328 30.7881C65.4328 30.6375 65.4328 30.4759 65.4328 30.207C64.7389 30.207 64.0771 30.207 63.4154 30.207C62.4761 30.207 61.8784 29.6259 61.8677 28.6789C61.857 26.4728 61.8677 24.2667 61.8462 22.0715C61.8462 21.7272 61.6542 21.372 61.558 21.0276C61.4513 20.6617 61.302 20.3066 61.2591 19.9408C61.2057 19.4565 61.2484 18.9507 61.2484 18.445C60.6507 18.3589 60.0849 18.3266 59.5514 18.1759C58.0677 17.7562 57.3524 16.4757 57.6513 14.9153C58.0035 13.0751 58.7081 11.3964 59.9783 10.0189C61.1311 8.75988 62.5828 7.88822 64.248 7.55463C66.703 7.05961 69.03 7.42549 71.1434 8.91053C73.6839 10.6969 74.9007 13.1505 74.8261 16.2497C74.8047 17.2074 74.1323 17.8746 72.638 18.2297C72.2002 18.3373 71.7411 18.3589 71.2396 18.4234C71.2396 18.8324 71.2823 19.2305 71.2396 19.6072C71.1647 20.1237 71.0261 20.6402 70.9194 21.1568C70.8659 21.4043 70.7912 21.6518 70.7805 21.8993C70.7699 23.9978 70.7592 26.0961 70.7805 28.1946C70.7805 29.3782 70.2681 30.1639 68.8271 30.1961C68.3362 30.207 67.8345 30.2177 67.3434 30.2177C67.3007 30.2608 67.2581 30.3039 67.2154 30.3469V30.4007ZM26.0558 66.1601C33.3463 66.1601 40.6261 66.1279 47.9165 66.1817C49.5175 66.1924 50.3075 65.5038 50.2968 63.7603C50.2862 61.4252 50.2968 59.0899 50.2968 56.7548C50.2968 55.0116 49.6242 54.3443 47.8736 54.3443C33.2714 54.3443 18.6691 54.3443 4.06687 54.3443C3.90675 54.3443 3.75731 54.3336 3.59721 54.3443C2.75395 54.4088 2.0281 55.1084 2.0281 55.9263C2.01742 58.8424 2.0281 61.7481 2.0281 64.6643C2.0281 64.8796 2.10281 65.1164 2.20956 65.3101C2.58316 66.0632 3.27698 66.1708 4.02416 66.1601C11.368 66.1601 18.7012 66.1601 26.0449 66.1601H26.0558ZM26.0343 9.23336C19.1602 9.23336 12.286 9.23336 5.41182 9.23336C5.04888 9.23336 4.68597 9.23336 4.32306 9.26565C2.83934 9.38404 1.73989 10.7184 1.73989 12.1604C1.76124 15.8623 1.73989 19.5641 1.73989 23.2661C1.73989 28.6144 1.73989 33.9734 1.75057 39.3217C1.75057 40.8929 3.04215 42.141 4.61124 42.141C10.2045 42.141 15.7978 42.141 21.3803 42.141C25.3618 42.141 29.3327 42.141 33.3141 42.141C37.872 42.141 42.43 42.141 46.9877 42.141C49.3469 42.141 50.4997 40.9788 50.4997 38.59C50.4997 30.0133 50.4675 21.4257 50.521 12.8491C50.5317 10.3848 49.144 9.21185 46.881 9.22261C39.9321 9.2549 32.9832 9.23336 26.0236 9.23336H26.0343ZM66.2012 17.1967C68.1547 16.9384 70.3003 16.6586 72.4564 16.3896C73.0968 16.3142 73.1822 15.9053 73.0862 15.378C73.0648 15.2274 72.9795 15.0875 72.9582 14.9368C72.7126 12.9675 71.6451 11.5147 70.0974 10.3956C68.6137 9.31946 66.9378 9.02891 65.134 9.27641C63.4474 9.51315 62.1237 10.3095 61.0137 11.6008C60.0636 12.7092 59.6367 14.0113 59.3592 15.3995C59.2312 16.0237 59.5407 16.4541 60.2345 16.5295C62.1344 16.7554 64.0451 16.9492 66.1906 17.1859L66.2012 17.1967ZM14.0686 52.5364H38.1282C38.1282 51.9446 38.1069 51.3958 38.1282 50.8469C38.1602 50.0721 37.7013 49.674 37.0607 49.4696C36.7085 49.3511 36.303 49.3296 35.9292 49.3296C31.841 49.3296 27.7635 49.3296 23.6753 49.3296C21.0494 49.3296 18.4237 49.3296 15.7978 49.3296C14.6984 49.3296 14.1006 49.8891 14.0686 50.8576C14.0579 51.4065 14.0686 51.9553 14.0686 52.5364ZM68.966 21.7701H63.6503V28.4098H68.966V21.7701ZM30.4749 43.9597H21.7327V47.4895H30.4749V43.9597ZM69.4997 19.8762V18.8216H63.0096V19.8762H69.4997Z" fill="#5C2D91"/>
<path d="M66.1588 0C69.7133 0.107612 72.9691 1.11916 75.584 3.71261C76.5769 4.69188 77.4201 5.82181 78.2528 6.95172C78.4448 7.21 78.4128 7.78035 78.2528 8.08166C78.1459 8.28613 77.6337 8.3184 77.3026 8.33993C77.1639 8.33993 76.9611 8.15699 76.8757 8.0171C75.6696 6.02626 74.111 4.41209 72.0616 3.30369C70.5779 2.50737 69.0089 2.00158 67.301 1.90473C64.9526 1.7756 62.6683 2.04463 60.5656 3.18531C58.5161 4.29373 56.9362 5.91866 55.7088 7.89871C55.4205 8.3722 55.079 8.67352 54.5346 8.45829C54.0115 8.24308 53.8622 7.56512 54.2144 6.97326C55.7834 4.32599 57.9504 2.34594 60.7898 1.12993C62.487 0.398165 64.2696 0.0645672 66.1481 0.0215224L66.1588 0Z" fill="#F7941D"/>
<path d="M66.1548 3.69165C70.3285 3.72394 73.4986 5.5641 75.8042 8.97541C76.0391 9.31976 76.242 9.87934 76.1138 10.2129C75.8471 10.9447 74.9503 10.8909 74.4914 10.1914C73.4239 8.5342 72.0791 7.18906 70.275 6.38196C68.4924 5.58564 66.6565 5.33812 64.6924 5.63944C61.7357 6.10217 59.5903 7.63025 58.0637 10.1699C57.7435 10.708 57.0711 10.9232 56.6869 10.6111C56.1425 10.1807 56.1958 9.73945 56.5587 9.15836C58.1813 6.53261 60.4549 4.81083 63.4116 4.03602C64.2976 3.79928 65.2368 3.79928 66.1441 3.69165H66.1548Z" fill="#F7941D"/>
<path d="M67.2114 30.4004C67.2114 30.4004 67.297 30.3143 67.3396 30.2712C67.297 30.3143 67.2541 30.3574 67.2114 30.4004Z" fill="#E9E9E9"/>
<path d="M39.8479 60.2094C39.8479 59.4239 39.8479 58.6384 39.8479 57.8527C39.8479 56.5506 40.4776 55.8512 41.7691 55.7974C42.9113 55.7544 44.0641 55.7544 45.2063 55.7974C46.3057 55.8405 47.117 56.7121 47.1384 57.8958C47.1704 59.467 47.1917 61.0489 47.1384 62.6199C47.085 63.8575 46.4231 64.826 44.8861 64.7399C43.8508 64.6861 42.8046 64.7399 41.7585 64.7291C40.563 64.7291 39.8586 64.0081 39.8479 62.8136C39.8479 62.7922 39.8479 62.7598 39.8479 62.7384C39.8479 61.8989 39.8479 61.0596 39.8479 60.2203V60.2094ZM41.6198 62.8136C41.6198 62.8136 41.6198 62.889 41.6091 62.9321L41.7265 62.8459H45.3131V57.6913H41.6305V62.8245L41.6198 62.8136Z" fill="#5C2D91"/>
<path d="M20.7513 63.286C19.7905 63.286 18.8298 63.286 17.8692 63.286C17.1113 63.286 16.6737 62.931 16.727 62.339C16.7911 61.672 17.2394 61.4783 17.8478 61.4783C19.8225 61.489 21.7972 61.4783 23.7613 61.4783C24.3377 61.4783 24.7968 61.7258 24.8288 62.3283C24.8608 62.9848 24.4017 63.2753 23.772 63.2753C22.758 63.2753 21.7439 63.2753 20.7406 63.2753L20.7513 63.286Z" fill="#5C2D91"/>
<path d="M9.12475 63.2865C8.13205 63.2865 7.15002 63.2865 6.15732 63.2865C5.55958 63.2865 5.17529 63.0498 5.15396 62.3718C5.12194 61.6832 5.57025 61.5002 6.09328 61.5002C8.14272 61.4788 10.2028 61.4788 12.2523 61.5002C12.7646 61.5002 13.1382 61.7155 13.1382 62.3397C13.1382 62.9639 12.818 63.2651 12.2416 63.2758C11.2062 63.3082 10.1602 63.2758 9.12475 63.2758V63.2865Z" fill="#5C2D91"/>
<path d="M32.3496 63.2863C31.357 63.2863 30.3749 63.2863 29.3822 63.2863C28.7738 63.2863 28.4216 63.0388 28.4216 62.3716C28.4216 61.715 28.8165 61.489 29.3716 61.489C31.3997 61.4783 33.4278 61.4783 35.4666 61.489C36.0216 61.489 36.4058 61.7043 36.4165 62.3716C36.4165 63.0388 35.9896 63.2539 35.4879 63.2755C34.4524 63.3293 33.4065 63.2863 32.3603 63.2863H32.3496Z" fill="#5C2D91"/>
<path d="M20.6844 59.0567C19.6703 59.0567 18.6563 59.0353 17.6422 59.0567C17.0231 59.0784 16.7242 58.6263 16.7669 58.2175C16.8096 57.8838 17.29 57.3349 17.5889 57.3242C19.7237 57.249 21.8586 57.249 23.9827 57.3135C24.2816 57.3135 24.762 57.8301 24.8046 58.142C24.8793 58.734 24.3882 59.0353 23.8118 59.046C22.7659 59.0567 21.7304 59.046 20.6844 59.046V59.0567Z" fill="#5C2D91"/>
<path d="M9.04096 59.0578C8.08028 59.0578 7.1196 59.0578 6.15893 59.0578C5.58252 59.0578 5.2196 58.7994 5.16623 58.229C5.11286 57.5942 5.44377 57.2715 6.08422 57.2715C8.13366 57.2715 10.1938 57.2715 12.2432 57.2715C12.7769 57.2715 13.1505 57.4759 13.1185 58.1001C13.0972 58.7349 12.7663 59.0362 12.1578 59.0469C11.1224 59.0469 10.0764 59.0469 9.04096 59.0469V59.0578Z" fill="#5C2D91"/>
<path d="M32.339 59.0578C31.357 59.0578 30.3642 59.0578 29.3822 59.0578C28.7632 59.0578 28.4323 58.7994 28.4216 58.1431C28.4216 57.4973 28.7738 57.2715 29.3502 57.2715C31.3783 57.2715 33.3958 57.2715 35.4239 57.2715C36.0003 57.2715 36.4165 57.519 36.3952 58.1753C36.3738 58.8211 35.979 59.0685 35.3706 59.0578C34.3564 59.0578 33.3424 59.0578 32.339 59.0578Z" fill="#5C2D91"/>
<path d="M26.0913 11.4612C31.9515 11.4612 37.8009 11.4612 43.661 11.4612C45.3369 11.4612 46.8099 11.9562 47.6639 13.5166C48.0161 14.1622 48.2829 14.9586 48.2829 15.6903C48.3256 22.3515 48.3256 29.0235 48.2936 35.6846C48.2936 37.9014 46.5217 39.9569 43.7465 39.9352C37.4167 39.8815 31.0975 39.9245 24.7677 39.9245C19.3025 39.9245 13.8373 39.8707 8.37217 39.9569C6.2053 39.989 4.60417 38.5686 4.11315 36.9653C3.95305 36.4594 3.96372 35.8783 3.96372 35.3403C3.96372 28.9159 3.9744 22.4807 3.94238 16.0562C3.94238 14.1515 4.5935 12.6664 6.35473 11.8809C7.0272 11.5796 7.83844 11.5042 8.58564 11.4935C14.4137 11.4612 20.2419 11.4719 26.0807 11.4719L26.0913 11.4612ZM25.9418 38.1168C31.8768 38.1168 37.8116 38.0951 43.7465 38.1382C45.3476 38.1489 46.543 37.1481 46.543 35.3189C46.5537 28.8943 46.575 22.459 46.5324 16.0347C46.5217 14.2053 45.7638 13.2691 43.7357 13.2583C31.8875 13.2153 20.0497 13.2475 8.20138 13.226C6.72833 13.226 5.73563 14.399 5.7463 15.6796C5.77834 22.3407 5.78901 29.0128 5.7463 35.6739C5.7463 36.9974 6.97385 38.1598 8.21204 38.1489C14.1255 38.0844 20.0284 38.1168 25.9418 38.1168Z" fill="#5C2D91"/>
<path d="M41.6213 62.8137L41.6853 62.7922L41.7279 62.846L41.6106 62.9319C41.6106 62.9319 41.6106 62.8567 41.6213 62.8137Z" fill="#AAAAAA"/>
<path d="M26.7031 33.9083C21.4408 33.7791 17.4806 32.3694 13.9048 29.8297C13.1576 29.2917 12.4744 28.6568 11.802 28.022C11.0761 27.3547 11.0761 27.0104 11.6846 26.257C11.77 26.1602 11.866 26.0633 11.9514 25.9772C14.5239 23.3837 17.0964 20.7795 19.6795 18.1861C20.4267 17.4328 21.0137 17.379 21.793 18.1215C24.1626 20.3922 28.315 20.1985 30.7487 17.8956C31.2398 17.4328 31.7626 17.4651 32.2324 17.9386C34.9756 20.6934 37.7189 23.4592 40.4515 26.2247C41.0919 26.8705 41.1241 27.2793 40.4515 27.9142C37.8896 30.3356 34.9542 32.1434 31.5493 33.0257C29.6919 33.51 27.76 33.7037 26.6925 33.8866L26.7031 33.9083ZM38.6582 27.0749C36.3846 24.7827 34.1218 22.5337 31.9122 20.2523C31.4744 19.8003 31.1542 19.7895 30.6847 20.1554C29.5425 21.0594 28.1762 21.436 26.7565 21.565C24.547 21.7697 22.5723 21.1024 20.907 19.7895C18.4627 22.2646 16.0396 24.7075 13.6273 27.1394C20.1065 33.5423 31.6026 33.7467 38.6582 27.0642V27.0749Z" fill="#F7941D"/>
</g>
</svg>
