<svg width="58" height="58" viewBox="0 0 58 58" fill="none" xmlns="http://www.w3.org/2000/svg">
<g clip-path="url(#clip0_70_1060)">
<path d="M28.9677 57.6165C44.79 57.6165 57.6165 44.79 57.6165 28.9677C57.6165 13.1454 44.79 0.318848 28.9677 0.318848C13.1454 0.318848 0.318848 13.1454 0.318848 28.9677C0.318848 44.79 13.1454 57.6165 28.9677 57.6165Z" fill="#4BAE4F"/>
<path d="M14.7121 44.5655C14.3766 44.5655 14.0493 44.4325 13.8068 44.1873C13.4872 43.8639 13.3637 43.3947 13.484 42.9554L15.3615 36.0988C14.1792 33.8719 13.5572 31.3724 13.5578 28.8373C13.561 20.3089 20.5011 13.3701 29.0276 13.3701C33.1645 13.3714 37.0512 14.9827 39.9708 17.9068C42.8911 20.8303 44.4979 24.717 44.4967 28.85C44.4935 37.3797 37.5541 44.3191 29.0269 44.3191C26.6141 44.3185 24.226 43.7512 22.0837 42.6747L15.0349 44.5235C14.9285 44.5521 14.8197 44.5655 14.7121 44.5655ZM22.2378 40.0447C22.4492 40.0447 22.6593 40.0976 22.8477 40.2001C24.7328 41.2282 26.8675 41.7719 29.0225 41.7726C36.151 41.7726 41.9476 35.9753 41.9507 28.8488C41.952 25.3956 40.6093 22.1488 38.1697 19.7066C35.7301 17.2638 32.4833 15.918 29.0276 15.9167C21.9048 15.9167 16.1082 21.7133 16.105 28.8392C16.1044 31.1088 16.7009 33.3434 17.8297 35.2992C17.9997 35.594 18.0443 35.9441 17.9551 36.272L16.5233 41.5007L21.9157 40.0861C22.0207 40.0587 22.1296 40.0447 22.2378 40.0447Z" fill="white"/>
<path d="M23.4768 29.1244C23.2953 28.8825 21.9966 27.1585 21.9966 25.374C21.9966 23.5895 22.9331 22.7122 23.2654 22.3493C23.5977 21.9864 23.9905 21.896 24.2325 21.896C24.4744 21.896 24.7163 21.8985 24.9277 21.9087C25.1505 21.9202 25.4491 21.8241 25.7432 22.5314C26.0456 23.2571 26.7701 25.0423 26.8612 25.2237C26.9522 25.4052 27.012 25.6165 26.8917 25.8591C26.7708 26.101 26.7103 26.2519 26.5295 26.4639C26.348 26.6759 26.1488 26.9369 25.9851 27.0993C25.8037 27.2801 25.6146 27.4762 25.826 27.839C26.0373 28.2019 26.765 29.3893 27.8429 30.3512C29.2275 31.5869 30.3958 31.9696 30.7587 32.151C31.1209 32.3324 31.3329 32.3025 31.5443 32.06C31.7556 31.818 32.4509 31.0012 32.6928 30.6383C32.9347 30.2755 33.176 30.3359 33.5083 30.4569C33.8406 30.5779 35.6232 31.4552 35.9855 31.6366C36.3477 31.818 36.5897 31.9091 36.6807 32.06C36.7717 32.2115 36.7717 32.9373 36.4693 33.784C36.1669 34.6307 34.7186 35.4042 34.0221 35.508C33.3975 35.6016 32.6068 35.6404 31.7385 35.3641C31.212 35.1973 30.5365 34.9739 29.6713 34.6002C26.0335 33.0289 23.6589 29.3663 23.4768 29.1244Z" fill="white"/>
</g>
<defs>
<clipPath id="clip0_70_1060">
<rect width="58" height="58" fill="white"/>
</clipPath>
</defs>
</svg>
