<svg width="40" height="41" viewBox="0 0 40 41" fill="none" xmlns="http://www.w3.org/2000/svg">
<g clip-path="url(#clip0_70_59)">
<path d="M20.0013 28.0818C21.616 28.0818 22.9297 26.7681 22.9297 25.1534V16.4185C23.6116 16.1766 24.1016 15.5253 24.1016 14.7615C24.1016 13.7923 23.313 13.0037 22.3438 13.0037H17.6562C16.687 13.0037 15.8984 13.7923 15.8984 14.7615C15.8984 15.5253 16.3884 16.1766 17.0703 16.4185V25.1534C17.0703 26.7681 18.384 28.0818 20.0013 28.0818ZM21.7578 19.393H18.2422V16.5193H21.7578V19.393ZM19.9987 26.9099C19.0302 26.9099 18.2422 26.1219 18.2422 25.1534V20.5649H21.7578V25.1534C21.7578 26.1219 20.9698 26.9099 19.9987 26.9099ZM17.6562 14.1755H22.3438C22.6669 14.1755 22.9297 14.4383 22.9297 14.7615C22.9297 15.0846 22.6669 15.3474 22.3438 15.3474H17.6562C17.3331 15.3474 17.0703 15.0846 17.0703 14.7615C17.0703 14.4383 17.3331 14.1755 17.6562 14.1755Z" fill="#5C2D91"/>
<path d="M35.3906 26.2267V14.8587C36.7262 14.5866 37.7344 13.4029 37.7344 11.988C37.7344 10.3726 36.4202 9.05835 34.8047 9.05835C33.9472 9.05835 33.1746 9.42866 32.6384 10.0178L31.7656 9.51249C31.4857 9.3503 31.1272 9.44585 30.9649 9.72593C30.8028 10.0059 30.8984 10.3644 31.1784 10.5266L32.0385 11.0246C31.933 11.3266 31.875 11.6506 31.875 11.9881C31.875 13.403 32.8831 14.5866 34.2188 14.8588V26.2268C32.8831 26.499 31.875 27.6826 31.875 29.0975C31.875 29.435 31.933 29.7591 32.0385 30.061L22.2174 35.7468C21.6797 35.0976 20.8678 34.6833 19.9609 34.6833C19.0541 34.6833 18.2422 35.0976 17.7044 35.7468L7.94867 30.0987C8.06266 29.7862 8.125 29.449 8.125 29.0974C8.125 27.6552 7.07727 26.454 5.70312 26.2127V14.8727C7.07727 14.6315 8.125 13.4302 8.125 11.988C8.125 11.6365 8.06266 11.2993 7.94859 10.9867L17.7043 5.33866C18.2422 5.9878 19.0541 6.4021 19.9609 6.4021C20.8678 6.4021 21.6797 5.9878 22.2175 5.33866L28.8359 9.1703C29.1124 9.33054 29.4768 9.2328 29.6366 8.95687C29.7987 8.67679 29.7031 8.31835 29.423 8.15624L22.7696 4.30429C22.8479 4.04038 22.8906 3.7614 22.8906 3.47241C22.8906 1.85694 21.5764 0.542725 19.9609 0.542725C18.3455 0.542725 17.0312 1.85694 17.0312 3.47241C17.0312 3.76132 17.074 4.04038 17.1523 4.30429L7.33383 9.98866C6.79883 9.41671 6.03836 9.05835 5.19531 9.05835C3.57984 9.05835 2.26562 10.3726 2.26562 11.988C2.26562 13.3751 3.23477 14.5391 4.53125 14.8409V26.2446C3.23477 26.5463 2.26562 27.7105 2.26562 29.0975C2.26562 30.713 3.57984 32.0272 5.19531 32.0272C6.03836 32.0272 6.79883 31.6688 7.33383 31.0969L17.1522 36.7812C17.074 37.0451 17.0312 37.3241 17.0312 37.613C17.0312 39.2285 18.3455 40.5427 19.9609 40.5427C21.5764 40.5427 22.8906 39.2285 22.8906 37.613C22.8906 37.3241 22.8479 37.045 22.7696 36.7812L32.6384 31.0677C33.1746 31.6568 33.9472 32.0271 34.8047 32.0271C36.4202 32.0271 37.7344 30.7129 37.7344 29.0974C37.7344 27.6826 36.7262 26.4989 35.3906 26.2267ZM19.9609 1.7146C20.9302 1.7146 21.7188 2.50319 21.7188 3.47241C21.7188 4.44163 20.9302 5.23022 19.9609 5.23022C18.9916 5.23022 18.2031 4.44163 18.2031 3.47241C18.2031 2.50319 18.9916 1.7146 19.9609 1.7146ZM3.4375 11.988C3.4375 11.0188 4.22602 10.2302 5.19531 10.2302C6.16461 10.2302 6.95312 11.0188 6.95312 11.988C6.95312 12.9573 6.16461 13.7458 5.19531 13.7458C4.22602 13.7458 3.4375 12.9573 3.4375 11.988ZM5.19531 30.8552C4.22602 30.8552 3.4375 30.0666 3.4375 29.0974C3.4375 28.1282 4.22602 27.3396 5.19531 27.3396C6.16461 27.3396 6.95312 28.1282 6.95312 29.0974C6.95312 30.0666 6.16461 30.8552 5.19531 30.8552ZM19.9609 39.3708C18.9916 39.3708 18.2031 38.5823 18.2031 37.613C18.2031 36.6438 18.9916 35.8552 19.9609 35.8552C20.9302 35.8552 21.7188 36.6438 21.7188 37.613C21.7188 38.5823 20.9302 39.3708 19.9609 39.3708ZM33.0469 11.988C33.0469 11.0188 33.8354 10.2302 34.8047 10.2302C35.774 10.2302 36.5625 11.0188 36.5625 11.988C36.5625 12.9573 35.774 13.7458 34.8047 13.7458C33.8354 13.7458 33.0469 12.9573 33.0469 11.988ZM34.8047 30.8552C33.8354 30.8552 33.0469 30.0666 33.0469 29.0974C33.0469 28.1282 33.8354 27.3396 34.8047 27.3396C35.774 27.3396 36.5625 28.1282 36.5625 29.0974C36.5625 30.0666 35.774 30.8552 34.8047 30.8552Z" fill="#5C2D91"/>
<path d="M13.5156 26.1677C13.192 26.1677 12.9297 26.43 12.9297 26.7537V29.1365C12.9297 30.1057 13.7182 30.8943 14.6875 30.8943H25.3125C26.2818 30.8943 27.0703 30.1057 27.0703 29.1365V11.949C27.0703 10.9798 26.2818 10.1912 25.3125 10.1912H14.6875C13.7182 10.1912 12.9297 10.9798 12.9297 11.949V24.0583C12.9297 24.382 13.192 24.6443 13.5156 24.6443C13.8392 24.6443 14.1016 24.382 14.1016 24.0583V11.949C14.1016 11.6258 14.3644 11.363 14.6875 11.363H25.3125C25.6356 11.363 25.8984 11.6258 25.8984 11.949V29.1365C25.8984 29.4596 25.6356 29.7224 25.3125 29.7224H14.6875C14.3644 29.7224 14.1016 29.4596 14.1016 29.1365V26.7537C14.1016 26.43 13.8392 26.1677 13.5156 26.1677Z" fill="#5C2D91"/>
</g>
<defs>
<clipPath id="clip0_70_59">
<rect width="40" height="40" fill="white" transform="translate(0 0.542725)"/>
</clipPath>
</defs>
</svg>
