<svg width="40" height="41" viewBox="0 0 40 41" fill="none" xmlns="http://www.w3.org/2000/svg">
<path d="M17.1171 34.4948L10.3779 27.7556" stroke="#5C2D91" stroke-width="1.71875" stroke-miterlimit="10" stroke-linecap="round" stroke-linejoin="round"/>
<path d="M27.3673 24.2446L20.6282 17.5054" stroke="#5C2D91" stroke-width="1.71875" stroke-miterlimit="10" stroke-linecap="round" stroke-linejoin="round"/>
<path d="M26.1559 11.978L6.58559 31.5483C4.72473 33.4092 4.72473 36.4264 6.58559 38.2872C8.44645 40.1489 11.4636 40.1489 13.3245 38.2872L32.8948 18.7169" stroke="#5C2D91" stroke-width="1.71875" stroke-miterlimit="10" stroke-linecap="round" stroke-linejoin="round"/>
<path d="M35.7708 12.4714L31.21 17.0324" stroke="#5C2D91" stroke-width="1.71875" stroke-miterlimit="10" stroke-linecap="round" stroke-linejoin="round"/>
<path d="M27.8403 13.6627L32.4013 9.10181" stroke="#5C2D91" stroke-width="1.71875" stroke-miterlimit="10" stroke-linecap="round" stroke-linejoin="round"/>
<path d="M29.0316 5.73236L24.4707 10.2932L34.5794 20.4019L39.1402 15.841L29.0316 5.73236Z" stroke="#5C2D91" stroke-width="1.71875" stroke-miterlimit="10" stroke-linecap="round" stroke-linejoin="round"/>
<path d="M7.71509 15.4334V11.2947" stroke="#5C2D91" stroke-width="1.71875" stroke-miterlimit="10" stroke-linecap="round" stroke-linejoin="round"/>
<path d="M9.78442 13.364H5.64575" stroke="#5C2D91" stroke-width="1.71875" stroke-miterlimit="10" stroke-linecap="round" stroke-linejoin="round"/>
<path d="M0.860637 13.793C0.751809 6.36788 7.71509 1.4021 7.71509 1.4021C7.71509 1.4021 14.6784 6.36788 14.5695 13.793C14.4405 22.6048 0.989778 22.6048 0.860637 13.793Z" stroke="#5C2D91" stroke-width="1.71875" stroke-miterlimit="10" stroke-linecap="round" stroke-linejoin="round"/>
</svg>
