<svg width="75" height="76" viewBox="0 0 75 76" fill="none" xmlns="http://www.w3.org/2000/svg">
<g clip-path="url(#clip0_483_185)">
<mask id="mask0_483_185" style="mask-type:luminance" maskUnits="userSpaceOnUse" x="0" y="0" width="75" height="76">
<path d="M74.8002 0.864746H0.0336914V75.6312H74.8002V0.864746Z" fill="white"/>
</mask>
<g mask="url(#mask0_483_185)">
<path d="M72.7495 75.6312H1.95711C0.57545 75.0375 0.0341797 74.0339 0.0341797 72.493C0.0769115 58.0175 0.0626676 43.5279 0.0626676 29.0524C0.0626676 28.7838 -0.00855218 28.4869 0.0911555 28.2608C0.219351 27.9639 0.43301 27.5963 0.703645 27.4691C1.60101 27.0592 2.27048 27.6105 2.27048 28.7131C2.27048 35.9226 2.27048 43.1179 2.27048 50.3274C2.27048 57.7065 2.27048 65.0715 2.27048 72.4506C2.27048 73.1197 2.62183 73.4543 3.32453 73.4543C5.21898 73.4543 7.09918 73.4543 8.99362 73.4543C9.20728 73.4543 9.42094 73.4401 9.66309 73.426C9.66309 70.9946 9.56338 68.6055 9.69158 66.2307C9.81977 64.1244 9.33548 62.216 8.42387 60.3783C7.38406 58.2861 7.12767 56.2081 7.9823 53.9463C8.68026 52.1086 10.0334 51.2463 11.9991 51.9248C12.754 52.1792 13.3808 51.5997 13.1813 50.8363C12.8822 49.6913 12.6543 48.5462 13.0389 47.3871C13.3238 46.5248 13.7511 45.719 14.1072 44.885C12.6686 44.475 11.3154 43.7258 10.2044 42.6797C7.41255 40.0645 6.14483 36.8132 6.87128 33.0529C7.48377 29.8299 9.26426 27.2854 12.2555 25.688C14.3493 24.5712 16.5572 24.3026 18.8789 24.656C21.6423 25.0801 23.8643 26.3524 25.5451 28.5576C26.5849 29.9288 27.3968 31.4979 28.8924 32.4592C29.5761 32.8974 30.3168 33.2791 31.1145 33.7456V3.05586H30.3596C21.3146 3.05586 12.2555 3.05586 3.21058 3.04172C2.4699 3.04172 2.25624 3.21136 2.25624 3.96058C2.28472 10.3077 2.27048 16.669 2.27048 23.0162C2.27048 23.9068 1.82892 24.3874 1.0455 24.3733C0.418766 24.3592 0.0626676 23.8785 0.0626676 23.0728C0.0626676 16.4711 0.0626676 9.88366 0.0626676 3.28204C0.0626676 3.09827 0.0911555 2.90036 0.148131 2.73073C0.532718 1.48674 1.43009 0.864746 2.86873 0.864746C16.0301 0.864746 29.2058 0.864746 42.3672 0.864746C52.1813 0.864746 61.9811 0.864746 71.7952 0.878882C72.3507 0.878882 72.9632 0.991972 73.4475 1.24642C74.5443 1.79774 74.7722 2.85795 74.7722 3.96058C74.7722 26.734 74.7722 49.5216 74.7722 72.2951C74.7722 73.8642 74.2737 75.0517 72.7211 75.6312H72.7495ZM59.6878 73.2846C59.6878 73.2846 59.7591 73.3695 59.8018 73.4119H62.9782C62.9782 73.2564 62.9924 73.1433 62.9924 73.0302C62.9924 69.9202 62.9924 66.8102 63.0067 63.6861C63.0067 63.0783 63.1491 62.4422 63.3343 61.8626C63.6192 61.0144 63.9753 60.1945 64.3599 59.4029C65.1148 57.8337 65.3997 56.2788 64.6447 54.6107C64.2744 53.8049 64.2886 53.7908 63.377 53.9604C62.7361 54.0735 62.0239 54.1583 61.4114 54.0028C60.1579 53.6918 59.6878 52.5185 59.0611 51.5431C58.9899 51.43 59.1323 51.1897 59.1608 51.0059C59.3175 50.073 59.5739 49.1541 59.6024 48.2211C59.6594 46.7085 57.9358 45.1818 56.5114 45.4221C54.674 45.7331 53.1641 46.5954 52.0673 48.1363C51.1557 49.4085 50.5575 50.7798 50.3438 52.3489C50.1729 53.6777 50.2014 53.819 51.3694 54.3986C52.6228 55.0065 53.8763 54.7945 55.144 54.441C55.7992 54.2573 56.4687 54.1583 56.9673 54.6955C57.6082 55.3882 58.1353 56.1657 58.7477 56.8866C59.4457 57.6924 59.6594 58.5971 59.6451 59.6573C59.6166 64.2092 59.6451 68.7469 59.6451 73.2988L59.6878 73.2846ZM15.0615 73.4119C15.0615 73.4119 15.1328 73.327 15.1755 73.2846C15.1755 73.016 15.1897 72.7475 15.1897 72.4789C15.1897 67.9553 15.1897 63.4317 15.1897 58.9081C15.1897 58.2296 15.3464 57.6641 15.8022 57.1269C16.2865 56.5473 16.6996 55.8971 17.1269 55.2751C17.7964 54.328 18.4943 54.0876 19.6339 54.441C20.6024 54.7379 21.571 54.8227 22.5966 54.6107C24.0637 54.3138 24.605 53.6353 24.3344 52.2075C24.3344 52.1368 24.3344 52.0662 24.3344 51.9955C23.7646 49.3096 22.5111 47.0902 19.9045 45.9028C17.8391 44.9556 16.2723 45.2242 15.3322 47.4153C14.8621 48.518 15.0758 49.5782 15.5031 50.6525C15.6313 50.9918 15.731 51.4442 15.6028 51.7552C14.8479 53.6777 13.2383 54.4269 11.1729 53.918C10.9308 53.8615 10.4323 53.9463 10.3895 54.0735C10.0904 54.8793 9.77704 55.7133 9.66309 56.5615C9.49216 57.7913 10.2044 58.8374 10.6744 59.9259C11.4721 61.7919 12.0561 63.6579 11.8994 65.7218C11.7854 67.2767 11.8709 68.8317 11.8709 70.3867V73.3977H15.0758L15.0615 73.4119ZM65.243 73.4401C67.3938 73.4401 69.4734 73.4401 71.5531 73.4401C72.5501 73.4401 72.5929 73.3977 72.5929 72.4082C72.5929 49.6347 72.5929 26.8613 72.5929 4.07367C72.5929 3.08413 72.5644 3.05586 71.5531 3.05586C62.5224 3.05586 53.506 3.05586 44.4753 3.05586H43.7774V33.6042C45.8142 32.7702 47.3668 31.4414 48.4636 29.6461C49.6031 27.766 51.113 26.3241 53.1214 25.4476C53.5772 25.2497 54.2609 25.2073 54.6882 25.4194C55.4859 25.8152 55.258 26.8754 54.2751 27.2995C52.5089 28.0628 51.2982 29.3634 50.2299 30.8901C49.4607 31.9927 48.5776 33.0671 47.5662 33.9294C45.3299 35.8236 42.5809 36.6011 39.7321 36.7425C37.5812 36.8556 35.4162 36.8839 33.2511 36.5163C29.4907 35.8943 26.5564 34.099 24.5338 30.9042C23.1236 28.6707 21.2434 27.2429 18.5513 26.8189C15.7168 26.3665 13.2811 27.1299 11.3439 29.0948C9.49216 30.9749 8.58055 33.3074 9.03636 36.0357C9.60612 39.4001 11.5148 41.6902 14.7482 42.7221C16.0444 43.1462 17.4688 43.1462 18.8362 43.3441C21.2577 43.6834 23.0666 44.9556 24.491 46.864C26.1576 49.0834 26.7273 51.6562 26.8271 54.3421C26.8983 56.0526 27.5108 57.4238 28.8782 58.4557C31.0575 60.0955 33.9205 59.6149 35.6725 57.7065C36.5272 56.7735 37.9373 56.6039 38.9059 57.4521C39.205 57.7065 39.4614 58.0034 39.7463 58.272C40.9428 59.417 43.2076 59.7421 44.7175 59.106C47.0107 58.1447 47.9793 56.3353 48.0078 54.0028C48.022 52.4054 48.3497 50.907 48.9052 49.4227C49.6459 47.4719 50.8566 45.8886 52.5374 44.6446C54.2039 43.4007 56.1838 43.2027 58.1495 43.0897C60.1579 42.9766 61.8529 42.1991 63.2631 40.842C65.3285 38.8347 66.1831 36.3891 65.6845 33.5194C65.2572 31.0456 64.018 29.1231 61.8244 27.9073C60.8701 27.3843 59.7733 27.0874 58.7193 26.734C58.0355 26.4937 57.9643 25.9707 58.0355 25.4052C58.0925 24.8681 58.4629 24.6277 59.0041 24.6843C61.7247 24.9246 63.9183 26.2251 65.6133 28.2608C67.5932 30.6356 68.3624 33.4063 67.8924 36.5022C67.579 38.5661 66.7386 40.3331 65.3427 41.8739C64.018 43.3441 62.38 44.3054 60.457 44.9415C61.9954 46.652 62.0951 48.6169 61.5823 50.6667C61.4683 51.1473 61.5111 51.529 61.8529 51.7552C62.0951 51.9107 62.4939 51.8258 62.8215 51.84C63.5764 51.8683 64.4026 51.6986 65.0578 51.9531C66.8098 52.6316 66.9523 54.3704 67.2514 55.8829C67.579 57.5934 66.8668 59.1484 66.2258 60.6893C65.8555 61.5798 65.2857 62.4846 65.2572 63.3893C65.1433 66.7113 65.2145 70.0474 65.2145 73.4543L65.243 73.4401ZM17.3976 73.3977H57.4515V72.6485C57.4515 68.4076 57.4231 64.1809 57.48 59.94C57.48 59.1201 57.2806 58.4557 56.7963 57.8337C56.5542 57.5086 56.3548 57.1411 56.0699 56.8583C55.9132 56.7028 55.5856 56.5897 55.3862 56.6463C53.5345 57.1269 51.754 57.0562 50.0304 56.1798C49.8168 56.6604 49.6031 57.0987 49.4037 57.551C47.5805 61.6222 41.7974 63.1065 38.2792 59.8976C37.4958 59.1767 37.4673 59.2049 36.5699 59.8976C36.4132 60.0107 36.2565 60.1097 36.0999 60.2228C34.3763 61.4102 32.4961 61.8908 30.4165 61.4667C27.7387 60.9154 25.9582 59.318 25.0466 56.8018C24.8187 56.1939 24.5623 56.1798 24.0922 56.3918C22.4114 57.1128 20.7164 57.1128 19.0071 56.5191C18.8932 56.6746 18.7792 56.8301 18.6653 56.9573C17.7964 57.9327 17.3121 58.9929 17.3833 60.3783C17.5115 62.6542 17.4118 64.9443 17.4118 67.2343C17.4118 69.2699 17.4118 71.3197 17.4118 73.3836L17.3976 73.3977ZM33.3508 18.4785C33.3508 20.7968 33.365 22.9738 33.3365 25.1649C33.3365 25.7304 33.5787 26.0131 34.0345 26.1969C34.2481 26.2817 34.4903 26.3524 34.704 26.423C36.9118 27.1723 39.0626 27.1016 41.1137 25.8717C41.2989 25.7586 41.4841 25.4618 41.4841 25.2497C41.5126 23.5251 41.4983 21.8005 41.4983 20.0617V18.4502C38.7492 19.4539 36.0999 19.6235 33.3508 18.4643V18.4785ZM33.3508 8.68208C33.3508 11.0852 33.3508 13.3894 33.365 15.6936C33.365 15.8774 33.6357 16.1319 33.8351 16.245C36.3135 17.5031 38.792 17.4183 41.1992 16.0612C41.3274 15.9905 41.4841 15.7926 41.4841 15.6512C41.4983 13.3753 41.4841 11.0852 41.4841 8.63967C38.7635 9.68575 36.0856 9.85539 33.3365 8.68208H33.3508ZM33.3508 28.289C33.3508 30.2116 33.3508 32.0351 33.3508 33.8587C33.3508 34.3111 33.5787 34.4383 33.9775 34.4524C35.6583 34.4948 37.3391 34.5796 39.0056 34.5796C39.8318 34.5796 40.6579 34.3959 41.4556 34.3111V28.2749C38.7492 29.2927 36.0856 29.3775 33.3508 28.3032V28.289ZM33.3223 6.17997C36.0286 7.73495 38.7065 7.636 41.3559 6.20824V3.09827H33.3223V6.1941V6.17997Z" fill="#5C2D91"/>
<path d="M15.0444 73.4123C15.0444 73.4123 15.1153 73.3279 15.1579 73.2856C15.1153 73.3279 15.087 73.3701 15.0444 73.4123Z" fill="#D4D4D4"/>
<path d="M59.6865 73.2856C59.6865 73.2856 59.7574 73.3701 59.8 73.4123C59.7574 73.3701 59.7291 73.3279 59.6865 73.2856Z" fill="#D3D3D3"/>
<path d="M12.7003 15.4673C14.2244 15.4673 15.7343 15.4673 17.2584 15.4673C18.113 15.4673 18.5831 15.849 18.5973 16.5275C18.5973 17.2484 18.1273 17.6443 17.2442 17.6584C14.2387 17.6584 11.219 17.6584 8.21349 17.6584C7.34461 17.6584 6.81758 17.2343 6.83182 16.5558C6.83182 15.8772 7.34461 15.4814 8.22773 15.4673C9.72335 15.4673 11.219 15.4673 12.7003 15.4673Z" fill="#5C2D91"/>
<path d="M12.7143 12.9797C11.2044 12.9797 9.68033 12.9797 8.17047 12.9797C7.31584 12.9797 6.83154 12.5415 6.83154 11.8205C6.83154 11.2268 7.37281 10.7886 8.14199 10.7886C11.2044 10.7886 14.2526 10.7886 17.3151 10.7886C18.1412 10.7886 18.6113 11.2127 18.597 11.9053C18.597 12.5839 18.127 12.9656 17.2581 12.9797C15.7483 12.9797 14.2242 12.9797 12.7143 12.9797Z" fill="#5C2D91"/>
<path d="M9.50412 6.12347C10.0169 6.12347 10.5297 6.10933 11.0425 6.12347C11.6407 6.15174 12.0965 6.6041 12.1108 7.14128C12.125 7.77741 11.7404 8.25804 11.0852 8.28631C10.0169 8.32872 8.93436 8.31458 7.86606 8.28631C7.21084 8.25804 6.81201 7.79154 6.81201 7.15541C6.81201 6.61824 7.32479 6.13761 7.96577 6.12347C8.47855 6.10933 8.99134 6.12347 9.50412 6.12347Z" fill="#5C2D91"/>
<path d="M37.2958 50.8512C34.8031 50.6957 32.7093 50.0172 30.8861 48.5187C28.7922 46.78 27.5815 44.4899 26.5274 42.0868C26.2853 41.5354 26.0289 40.9559 25.9577 40.3621C25.7582 38.9485 27.1826 37.648 28.9061 38.3548C30.7436 39.104 32.5668 39.8815 34.561 40.1925C36.0139 40.4187 37.4668 40.5035 38.9481 40.3339C40.7856 40.136 42.5376 39.6553 44.2469 39.0051C44.9021 38.7506 45.5573 38.4679 46.2268 38.27C47.1242 37.9873 47.8506 38.3407 48.4204 39.0333C48.9474 39.6553 48.8762 40.4046 48.634 41.0831C47.8364 43.2742 46.825 45.3664 45.2867 47.1475C43.7911 48.8722 41.9394 50.1161 39.6176 50.5402C38.7914 50.6816 37.9653 50.7805 37.2958 50.8654V50.8512ZM28.2224 40.4187C29.2338 42.836 30.2451 44.9423 32.0398 46.5821C34.0909 48.4763 36.4982 48.957 39.1618 48.4057C41.0135 48.024 42.4949 47.0344 43.6914 45.5501C44.9021 44.0658 45.6713 42.3695 46.3835 40.5601C40.3583 43.2318 34.3616 43.359 28.2224 40.4187Z" fill="#F7941D"/>
</g>
</g>
<defs>
<clipPath id="clip0_483_185">
<rect width="75" height="76" fill="white"/>
</clipPath>
</defs>
</svg>
